# Tiled2Unity generated file. Do not modify by hand.
# Wavefront file for 'level_1_03_mesh_0026.obj'

# Vertices (Count = 36)
v -63.5 -8.5 0
v -64 -8.5 0
v -64 -8 0
v -63.5 -8 0
v -63.5 -9 0
v -64 -9 0
v -64 -8.5 0
v -63.5 -8.5 0
v -63.5 -9.5 0
v -64 -9.5 0
v -64 -9 0
v -63.5 -9 0
v -63.5 -10 0
v -64 -10 0
v -64 -9.5 0
v -63.5 -9.5 0
v -63.5 -10.5 0
v -64 -10.5 0
v -64 -10 0
v -63.5 -10 0
v -63.5 -11 0
v -64 -11 0
v -64 -10.5 0
v -63.5 -10.5 0
v -63.5 -11.5 0
v -64 -11.5 0
v -64 -11 0
v -63.5 -11 0
v -63.5 -12 0
v -64 -12 0
v -64 -11.5 0
v -63.5 -11.5 0
v -63.5 -12.5 0
v -64 -12.5 0
v -64 -12 0
v -63.5 -12 0

# Texture cooridinates (Count = 4)
vt 0 0
vt 1 0
vt 1 1
vt 0 1

# Normal
vn 0 0 -1

# Mesh description
g level_1_03_mesh_0026

# Faces
f 1/1/1 2/2/1 3/3/1 4/4/1
f 5/1/1 6/2/1 7/3/1 8/4/1
f 9/1/1 10/2/1 11/3/1 12/4/1
f 13/1/1 14/2/1 15/3/1 16/4/1
f 17/1/1 18/2/1 19/3/1 20/4/1
f 21/1/1 22/2/1 23/3/1 24/4/1
f 25/1/1 26/2/1 27/3/1 28/4/1
f 29/1/1 30/2/1 31/3/1 32/4/1
f 33/1/1 34/2/1 35/3/1 36/4/1

