# Tiled2Unity generated file. Do not modify by hand.
# Wavefront file for 'level_1_03_mesh_0020.obj'

# Vertices (Count = 12)
v -68 -6.5 0
v -68.5 -6.5 0
v -68.5 -6 0
v -68 -6 0
v -35.5 -9.5 0
v -36 -9.5 0
v -36 -9 0
v -35.5 -9 0
v -39 -9.5 0
v -39.5 -9.5 0
v -39.5 -9 0
v -39 -9 0

# Texture cooridinates (Count = 4)
vt 0 0
vt 1 0
vt 1 1
vt 0 1

# Normal
vn 0 0 -1

# Mesh description
g level_1_03_mesh_0020

# Faces
f 1/1/1 2/2/1 3/3/1 4/4/1
f 5/1/1 6/2/1 7/3/1 8/4/1
f 9/1/1 10/2/1 11/3/1 12/4/1

