# Tiled2Unity generated file. Do not modify by hand.
# Wavefront file for 'map2_mesh_0004.obj'

# Vertices (Count = 16)
v -1 -3 0
v -2.007813 -3 0
v -2.007813 -1.992188 0
v -1 -1.992188 0
v -1 -4 0
v -2.007813 -4 0
v -2.007813 -2.992188 0
v -1 -2.992188 0
v -1 -9 0
v -2.007813 -9 0
v -2.007813 -7.992188 0
v -1 -7.992188 0
v -1 -10 0
v -2.007813 -10 0
v -2.007813 -8.992188 0
v -1 -8.992188 0

# Texture cooridinates (Count = 4)
vt 0 0
vt 1 0
vt 1 1
vt 0 1

# Normal
vn 0 0 -1

# Mesh description
g map2_mesh_0004

# Faces
f 1/1/1 2/2/1 3/3/1 4/4/1
f 5/1/1 6/2/1 7/3/1 8/4/1
f 9/1/1 10/2/1 11/3/1 12/4/1
f 13/1/1 14/2/1 15/3/1 16/4/1

