# Tiled2Unity generated file. Do not modify by hand.
# Wavefront file for 'level_2_4_mesh_0003.obj'

# Vertices (Count = 152)
v -2 -4.5 0
v -2.5 -4.5 0
v -2.5 -4 0
v -2 -4 0
v -4.5 -4.5 0
v -5 -4.5 0
v -5 -4 0
v -4.5 -4 0
v -7 -4.5 0
v -7.5 -4.5 0
v -7.5 -4 0
v -7 -4 0
v -2 -7 0
v -2.5 -7 0
v -2.5 -6.5 0
v -2 -6.5 0
v -4.5 -7 0
v -5 -7 0
v -5 -6.5 0
v -4.5 -6.5 0
v -7 -7 0
v -7.5 -7 0
v -7.5 -6.5 0
v -7 -6.5 0
v -2 -9.5 0
v -2.5 -9.5 0
v -2.5 -9 0
v -2 -9 0
v -4.5 -9.5 0
v -5 -9.5 0
v -5 -9 0
v -4.5 -9 0
v -7 -9.5 0
v -7.5 -9.5 0
v -7.5 -9 0
v -7 -9 0
v -2 -12 0
v -2.5 -12 0
v -2.5 -11.5 0
v -2 -11.5 0
v -4.5 -12 0
v -5 -12 0
v -5 -11.5 0
v -4.5 -11.5 0
v -7 -12 0
v -7.5 -12 0
v -7.5 -11.5 0
v -7 -11.5 0
v -2 -17 0
v -2.5 -17 0
v -2.5 -16.5 0
v -2 -16.5 0
v -4.5 -17 0
v -5 -17 0
v -5 -16.5 0
v -4.5 -16.5 0
v -7 -17 0
v -7.5 -17 0
v -7.5 -16.5 0
v -7 -16.5 0
v -2 -19.5 0
v -2.5 -19.5 0
v -2.5 -19 0
v -2 -19 0
v -4.5 -19.5 0
v -5 -19.5 0
v -5 -19 0
v -4.5 -19 0
v -7 -19.5 0
v -7.5 -19.5 0
v -7.5 -19 0
v -7 -19 0
v -2 -22 0
v -2.5 -22 0
v -2.5 -21.5 0
v -2 -21.5 0
v -4.5 -22 0
v -5 -22 0
v -5 -21.5 0
v -4.5 -21.5 0
v -7 -22 0
v -7.5 -22 0
v -7.5 -21.5 0
v -7 -21.5 0
v -2 -24.5 0
v -2.5 -24.5 0
v -2.5 -24 0
v -2 -24 0
v -4.5 -24.5 0
v -5 -24.5 0
v -5 -24 0
v -4.5 -24 0
v -7 -24.5 0
v -7.5 -24.5 0
v -7.5 -24 0
v -7 -24 0
v -2 -27 0
v -2.5 -27 0
v -2.5 -26.5 0
v -2 -26.5 0
v -4.5 -27 0
v -5 -27 0
v -5 -26.5 0
v -4.5 -26.5 0
v -7 -27 0
v -7.5 -27 0
v -7.5 -26.5 0
v -7 -26.5 0
v -2 -29.5 0
v -2.5 -29.5 0
v -2.5 -29 0
v -2 -29 0
v -4.5 -29.5 0
v -5 -29.5 0
v -5 -29 0
v -4.5 -29 0
v -7 -29.5 0
v -7.5 -29.5 0
v -7.5 -29 0
v -7 -29 0
v -2 -32 0
v -2.5 -32 0
v -2.5 -31.5 0
v -2 -31.5 0
v -4.5 -32 0
v -5 -32 0
v -5 -31.5 0
v -4.5 -31.5 0
v -7 -32 0
v -7.5 -32 0
v -7.5 -31.5 0
v -7 -31.5 0
v -2 -34.5 0
v -2.5 -34.5 0
v -2.5 -34 0
v -2 -34 0
v -4.5 -34.5 0
v -5 -34.5 0
v -5 -34 0
v -4.5 -34 0
v -7 -34.5 0
v -7.5 -34.5 0
v -7.5 -34 0
v -7 -34 0
v -2 -37 0
v -2.5 -37 0
v -2.5 -36.5 0
v -2 -36.5 0
v -4.5 -37 0
v -5 -37 0
v -5 -36.5 0
v -4.5 -36.5 0

# Texture cooridinates (Count = 4)
vt 0 0
vt 1 0
vt 1 1
vt 0 1

# Normal
vn 0 0 -1

# Mesh description
g level_2_4_mesh_0003

# Faces
f 1/1/1 2/2/1 3/3/1 4/4/1
f 5/1/1 6/2/1 7/3/1 8/4/1
f 9/1/1 10/2/1 11/3/1 12/4/1
f 13/1/1 14/2/1 15/3/1 16/4/1
f 17/1/1 18/2/1 19/3/1 20/4/1
f 21/1/1 22/2/1 23/3/1 24/4/1
f 25/1/1 26/2/1 27/3/1 28/4/1
f 29/1/1 30/2/1 31/3/1 32/4/1
f 33/1/1 34/2/1 35/3/1 36/4/1
f 37/1/1 38/2/1 39/3/1 40/4/1
f 41/1/1 42/2/1 43/3/1 44/4/1
f 45/1/1 46/2/1 47/3/1 48/4/1
f 49/1/1 50/2/1 51/3/1 52/4/1
f 53/1/1 54/2/1 55/3/1 56/4/1
f 57/1/1 58/2/1 59/3/1 60/4/1
f 61/1/1 62/2/1 63/3/1 64/4/1
f 65/1/1 66/2/1 67/3/1 68/4/1
f 69/1/1 70/2/1 71/3/1 72/4/1
f 73/1/1 74/2/1 75/3/1 76/4/1
f 77/1/1 78/2/1 79/3/1 80/4/1
f 81/1/1 82/2/1 83/3/1 84/4/1
f 85/1/1 86/2/1 87/3/1 88/4/1
f 89/1/1 90/2/1 91/3/1 92/4/1
f 93/1/1 94/2/1 95/3/1 96/4/1
f 97/1/1 98/2/1 99/3/1 100/4/1
f 101/1/1 102/2/1 103/3/1 104/4/1
f 105/1/1 106/2/1 107/3/1 108/4/1
f 109/1/1 110/2/1 111/3/1 112/4/1
f 113/1/1 114/2/1 115/3/1 116/4/1
f 117/1/1 118/2/1 119/3/1 120/4/1
f 121/1/1 122/2/1 123/3/1 124/4/1
f 125/1/1 126/2/1 127/3/1 128/4/1
f 129/1/1 130/2/1 131/3/1 132/4/1
f 133/1/1 134/2/1 135/3/1 136/4/1
f 137/1/1 138/2/1 139/3/1 140/4/1
f 141/1/1 142/2/1 143/3/1 144/4/1
f 145/1/1 146/2/1 147/3/1 148/4/1
f 149/1/1 150/2/1 151/3/1 152/4/1

