# Tiled2Unity generated file. Do not modify by hand.
# Wavefront file for 'level_2_4_mesh_0020.obj'

# Vertices (Count = 80)
v -8 -1.5 0
v -8.5 -1.5 0
v -8.5 -1 0
v -8 -1 0
v 0 -2 0
v -0.5 -2 0
v -0.5 -1.5 0
v 0 -1.5 0
v 0 -5 0
v -0.5 -5 0
v -0.5 -4.5 0
v 0 -4.5 0
v -9.5 -9.5 0
v -10 -9.5 0
v -10 -9 0
v -9.5 -9 0
v -9.5 -12.5 0
v -10 -12.5 0
v -10 -12 0
v -9.5 -12 0
v -0.5 -14 0
v -1 -14 0
v -1 -13.5 0
v -0.5 -13.5 0
v -7 -14 0
v -7.5 -14 0
v -7.5 -13.5 0
v -7 -13.5 0
v -4.5 -15.5 0
v -5 -15.5 0
v -5 -15 0
v -4.5 -15 0
v -9.5 -16 0
v -10 -16 0
v -10 -15.5 0
v -9.5 -15.5 0
v -9 -17.5 0
v -9.5 -17.5 0
v -9.5 -17 0
v -9 -17 0
v -9 -20.5 0
v -9.5 -20.5 0
v -9.5 -20 0
v -9 -20 0
v -0.5 -24 0
v -1 -24 0
v -1 -23.5 0
v -0.5 -23.5 0
v -1.5 -26.5 0
v -2 -26.5 0
v -2 -26 0
v -1.5 -26 0
v -5 -27 0
v -5.5 -27 0
v -5.5 -26.5 0
v -5 -26.5 0
v -3.5 -28 0
v -4 -28 0
v -4 -27.5 0
v -3.5 -27.5 0
v -9.5 -29.5 0
v -10 -29.5 0
v -10 -29 0
v -9.5 -29 0
v -0.5 -34 0
v -1 -34 0
v -1 -33.5 0
v -0.5 -33.5 0
v -0.5 -37 0
v -1 -37 0
v -1 -36.5 0
v -0.5 -36.5 0
v -0.5 -39 0
v -1 -39 0
v -1 -38.5 0
v -0.5 -38.5 0
v -9 -39.5 0
v -9.5 -39.5 0
v -9.5 -39 0
v -9 -39 0

# Texture cooridinates (Count = 4)
vt 0 0
vt 1 0
vt 1 1
vt 0 1

# Normal
vn 0 0 -1

# Mesh description
g level_2_4_mesh_0020

# Faces
f 1/1/1 2/2/1 3/3/1 4/4/1
f 5/1/1 6/2/1 7/3/1 8/4/1
f 9/1/1 10/2/1 11/3/1 12/4/1
f 13/1/1 14/2/1 15/3/1 16/4/1
f 17/1/1 18/2/1 19/3/1 20/4/1
f 21/1/1 22/2/1 23/3/1 24/4/1
f 25/1/1 26/2/1 27/3/1 28/4/1
f 29/1/1 30/2/1 31/3/1 32/4/1
f 33/1/1 34/2/1 35/3/1 36/4/1
f 37/1/1 38/2/1 39/3/1 40/4/1
f 41/1/1 42/2/1 43/3/1 44/4/1
f 45/1/1 46/2/1 47/3/1 48/4/1
f 49/1/1 50/2/1 51/3/1 52/4/1
f 53/1/1 54/2/1 55/3/1 56/4/1
f 57/1/1 58/2/1 59/3/1 60/4/1
f 61/1/1 62/2/1 63/3/1 64/4/1
f 65/1/1 66/2/1 67/3/1 68/4/1
f 69/1/1 70/2/1 71/3/1 72/4/1
f 73/1/1 74/2/1 75/3/1 76/4/1
f 77/1/1 78/2/1 79/3/1 80/4/1

