# Tiled2Unity generated file. Do not modify by hand.
# Wavefront file for 'level_1_story_mesh_0008.obj'

# Vertices (Count = 28)
v -17 -5 0
v -17.5 -5 0
v -17.5 -4.5 0
v -17 -4.5 0
v -15 -5.5 0
v -15.5 -5.5 0
v -15.5 -5 0
v -15 -5 0
v -2.5 -6 0
v -3 -6 0
v -3 -5.5 0
v -2.5 -5.5 0
v -11 -6 0
v -11.5 -6 0
v -11.5 -5.5 0
v -11 -5.5 0
v -11 -8.5 0
v -11.5 -8.5 0
v -11.5 -8 0
v -11 -8 0
v -17 -8.5 0
v -17.5 -8.5 0
v -17.5 -8 0
v -17 -8 0
v -2.5 -11.5 0
v -3 -11.5 0
v -3 -11 0
v -2.5 -11 0

# Texture cooridinates (Count = 4)
vt 0 0
vt 1 0
vt 1 1
vt 0 1

# Normal
vn 0 0 -1

# Mesh description
g level_1_story_mesh_0008

# Faces
f 1/1/1 2/2/1 3/3/1 4/4/1
f 5/1/1 6/2/1 7/3/1 8/4/1
f 9/1/1 10/2/1 11/3/1 12/4/1
f 13/1/1 14/2/1 15/3/1 16/4/1
f 17/1/1 18/2/1 19/3/1 20/4/1
f 21/1/1 22/2/1 23/3/1 24/4/1
f 25/1/1 26/2/1 27/3/1 28/4/1

