# Tiled2Unity generated file. Do not modify by hand.
# Wavefront file for 'level_1_story_mesh_0014.obj'

# Vertices (Count = 52)
v -32.5 -2 0
v -33 -2 0
v -33 -1.5 0
v -32.5 -1.5 0
v -50 -2 0
v -50.5 -2 0
v -50.5 -1.5 0
v -50 -1.5 0
v -21.5 -3 0
v -22 -3 0
v -22 -2.5 0
v -21.5 -2.5 0
v -33 -4.5 0
v -33.5 -4.5 0
v -33.5 -4 0
v -33 -4 0
v -39.5 -4.5 0
v -40 -4.5 0
v -40 -4 0
v -39.5 -4 0
v -22.5 -5.5 0
v -23 -5.5 0
v -23 -5 0
v -22.5 -5 0
v -51.5 -5.5 0
v -52 -5.5 0
v -52 -5 0
v -51.5 -5 0
v -67.5 -5.5 0
v -68 -5.5 0
v -68 -5 0
v -67.5 -5 0
v -5.5 -7.5 0
v -6 -7.5 0
v -6 -7 0
v -5.5 -7 0
v -21.5 -7.5 0
v -22 -7.5 0
v -22 -7 0
v -21.5 -7 0
v -23 -9 0
v -23.5 -9 0
v -23.5 -8.5 0
v -23 -8.5 0
v -71.5 -9 0
v -72 -9 0
v -72 -8.5 0
v -71.5 -8.5 0
v -78.5 -9 0
v -79 -9 0
v -79 -8.5 0
v -78.5 -8.5 0

# Texture cooridinates (Count = 4)
vt 0 0
vt 1 0
vt 1 1
vt 0 1

# Normal
vn 0 0 -1

# Mesh description
g level_1_story_mesh_0014

# Faces
f 1/1/1 2/2/1 3/3/1 4/4/1
f 5/1/1 6/2/1 7/3/1 8/4/1
f 9/1/1 10/2/1 11/3/1 12/4/1
f 13/1/1 14/2/1 15/3/1 16/4/1
f 17/1/1 18/2/1 19/3/1 20/4/1
f 21/1/1 22/2/1 23/3/1 24/4/1
f 25/1/1 26/2/1 27/3/1 28/4/1
f 29/1/1 30/2/1 31/3/1 32/4/1
f 33/1/1 34/2/1 35/3/1 36/4/1
f 37/1/1 38/2/1 39/3/1 40/4/1
f 41/1/1 42/2/1 43/3/1 44/4/1
f 45/1/1 46/2/1 47/3/1 48/4/1
f 49/1/1 50/2/1 51/3/1 52/4/1

