# Tiled2Unity generated file. Do not modify by hand.
# Wavefront file for 'level_1_story_mesh_0022.obj'

# Vertices (Count = 56)
v -26.5 -2.5 0
v -27 -2.5 0
v -27 -2 0
v -26.5 -2 0
v -37.5 -4 0
v -38 -4 0
v -38 -3.5 0
v -37.5 -3.5 0
v -44 -4 0
v -44.5 -4 0
v -44.5 -3.5 0
v -44 -3.5 0
v -48 -4 0
v -48.5 -4 0
v -48.5 -3.5 0
v -48 -3.5 0
v -60 -4 0
v -60.5 -4 0
v -60.5 -3.5 0
v -60 -3.5 0
v -76 -4 0
v -76.5 -4 0
v -76.5 -3.5 0
v -76 -3.5 0
v -28.5 -4.5 0
v -29 -4.5 0
v -29 -4 0
v -28.5 -4 0
v -26 -5 0
v -26.5 -5 0
v -26.5 -4.5 0
v -26 -4.5 0
v -4.5 -6 0
v -5 -6 0
v -5 -5.5 0
v -4.5 -5.5 0
v -22 -7 0
v -22.5 -7 0
v -22.5 -6.5 0
v -22 -6.5 0
v -55.5 -8 0
v -56 -8 0
v -56 -7.5 0
v -55.5 -7.5 0
v -64 -8 0
v -64.5 -8 0
v -64.5 -7.5 0
v -64 -7.5 0
v -27 -8.5 0
v -27.5 -8.5 0
v -27.5 -8 0
v -27 -8 0
v -37 -8.5 0
v -37.5 -8.5 0
v -37.5 -8 0
v -37 -8 0

# Texture cooridinates (Count = 4)
vt 0 0
vt 1 0
vt 1 1
vt 0 1

# Normal
vn 0 0 -1

# Mesh description
g level_1_story_mesh_0022

# Faces
f 1/1/1 2/2/1 3/3/1 4/4/1
f 5/1/1 6/2/1 7/3/1 8/4/1
f 9/1/1 10/2/1 11/3/1 12/4/1
f 13/1/1 14/2/1 15/3/1 16/4/1
f 17/1/1 18/2/1 19/3/1 20/4/1
f 21/1/1 22/2/1 23/3/1 24/4/1
f 25/1/1 26/2/1 27/3/1 28/4/1
f 29/1/1 30/2/1 31/3/1 32/4/1
f 33/1/1 34/2/1 35/3/1 36/4/1
f 37/1/1 38/2/1 39/3/1 40/4/1
f 41/1/1 42/2/1 43/3/1 44/4/1
f 45/1/1 46/2/1 47/3/1 48/4/1
f 49/1/1 50/2/1 51/3/1 52/4/1
f 53/1/1 54/2/1 55/3/1 56/4/1

