# Tiled2Unity generated file. Do not modify by hand.
# Wavefront file for 'level_1_story_mesh_0016.obj'

# Vertices (Count = 16)
v -9 -9.5 0
v -9.5 -9.5 0
v -9.5 -9 0
v -9 -9 0
v -9.5 -9.5 0
v -10 -9.5 0
v -10 -9 0
v -9.5 -9 0
v -11 -10.5 0
v -11.5 -10.5 0
v -11.5 -10 0
v -11 -10 0
v -11.5 -10.5 0
v -12 -10.5 0
v -12 -10 0
v -11.5 -10 0

# Texture cooridinates (Count = 4)
vt 0 0
vt 1 0
vt 1 1
vt 0 1

# Normal
vn 0 0 -1

# Mesh description
g level_1_story_mesh_0016

# Faces
f 1/1/1 2/2/1 3/3/1 4/4/1
f 5/1/1 6/2/1 7/3/1 8/4/1
f 9/1/1 10/2/1 11/3/1 12/4/1
f 13/1/1 14/2/1 15/3/1 16/4/1

