# Tiled2Unity generated file. Do not modify by hand.
# Wavefront file for 'level_2_1_mesh_0006.obj'

# Vertices (Count = 40)
v -3 -8 0
v -3.5 -8 0
v -3.5 -7.5 0
v -3 -7.5 0
v -8.5 -8 0
v -9 -8 0
v -9 -7.5 0
v -8.5 -7.5 0
v -14 -8 0
v -14.5 -8 0
v -14.5 -7.5 0
v -14 -7.5 0
v -20 -8 0
v -20.5 -8 0
v -20.5 -7.5 0
v -20 -7.5 0
v -27.5 -8 0
v -28 -8 0
v -28 -7.5 0
v -27.5 -7.5 0
v -3 -12 0
v -3.5 -12 0
v -3.5 -11.5 0
v -3 -11.5 0
v -8.5 -12 0
v -9 -12 0
v -9 -11.5 0
v -8.5 -11.5 0
v -14 -12 0
v -14.5 -12 0
v -14.5 -11.5 0
v -14 -11.5 0
v -20 -12 0
v -20.5 -12 0
v -20.5 -11.5 0
v -20 -11.5 0
v -27.5 -12 0
v -28 -12 0
v -28 -11.5 0
v -27.5 -11.5 0

# Texture cooridinates (Count = 4)
vt 0 0
vt 1 0
vt 1 1
vt 0 1

# Normal
vn 0 0 -1

# Mesh description
g level_2_1_mesh_0006

# Faces
f 1/1/1 2/2/1 3/3/1 4/4/1
f 5/1/1 6/2/1 7/3/1 8/4/1
f 9/1/1 10/2/1 11/3/1 12/4/1
f 13/1/1 14/2/1 15/3/1 16/4/1
f 17/1/1 18/2/1 19/3/1 20/4/1
f 21/1/1 22/2/1 23/3/1 24/4/1
f 25/1/1 26/2/1 27/3/1 28/4/1
f 29/1/1 30/2/1 31/3/1 32/4/1
f 33/1/1 34/2/1 35/3/1 36/4/1
f 37/1/1 38/2/1 39/3/1 40/4/1

