# Tiled2Unity generated file. Do not modify by hand.
# Wavefront file for 'level_2_5_mesh_0025.obj'

# Vertices (Count = 56)
v -20 -3 0
v -20.5 -3 0
v -20.5 -2.5 0
v -20 -2.5 0
v -9.5 -5.5 0
v -10 -5.5 0
v -10 -5 0
v -9.5 -5 0
v -4.5 -6 0
v -5 -6 0
v -5 -5.5 0
v -4.5 -5.5 0
v -22 -6 0
v -22.5 -6 0
v -22.5 -5.5 0
v -22 -5.5 0
v -11 -6.5 0
v -11.5 -6.5 0
v -11.5 -6 0
v -11 -6 0
v -16 -7 0
v -16.5 -7 0
v -16.5 -6.5 0
v -16 -6.5 0
v -2 -8 0
v -2.5 -8 0
v -2.5 -7.5 0
v -2 -7.5 0
v -3 -8 0
v -3.5 -8 0
v -3.5 -7.5 0
v -3 -7.5 0
v -22.5 -9 0
v -23 -9 0
v -23 -8.5 0
v -22.5 -8.5 0
v -4.5 -10 0
v -5 -10 0
v -5 -9.5 0
v -4.5 -9.5 0
v -7.5 -10 0
v -8 -10 0
v -8 -9.5 0
v -7.5 -9.5 0
v -29.5 -10.5 0
v -30 -10.5 0
v -30 -10 0
v -29.5 -10 0
v -12 -12.5 0
v -12.5 -12.5 0
v -12.5 -12 0
v -12 -12 0
v -24.5 -12.5 0
v -25 -12.5 0
v -25 -12 0
v -24.5 -12 0

# Texture cooridinates (Count = 4)
vt 0 0
vt 1 0
vt 1 1
vt 0 1

# Normal
vn 0 0 -1

# Mesh description
g level_2_5_mesh_0025

# Faces
f 1/1/1 2/2/1 3/3/1 4/4/1
f 5/1/1 6/2/1 7/3/1 8/4/1
f 9/1/1 10/2/1 11/3/1 12/4/1
f 13/1/1 14/2/1 15/3/1 16/4/1
f 17/1/1 18/2/1 19/3/1 20/4/1
f 21/1/1 22/2/1 23/3/1 24/4/1
f 25/1/1 26/2/1 27/3/1 28/4/1
f 29/1/1 30/2/1 31/3/1 32/4/1
f 33/1/1 34/2/1 35/3/1 36/4/1
f 37/1/1 38/2/1 39/3/1 40/4/1
f 41/1/1 42/2/1 43/3/1 44/4/1
f 45/1/1 46/2/1 47/3/1 48/4/1
f 49/1/1 50/2/1 51/3/1 52/4/1
f 53/1/1 54/2/1 55/3/1 56/4/1

