# Tiled2Unity generated file. Do not modify by hand.
# Wavefront file for 'level_2_5_mesh_0012.obj'

# Vertices (Count = 16)
v -9 -3.5 0
v -9.5 -3.5 0
v -9.5 -3 0
v -9 -3 0
v -28.5 -3.5 0
v -29 -3.5 0
v -29 -3 0
v -28.5 -3 0
v -26.5 -5 0
v -27 -5 0
v -27 -4.5 0
v -26.5 -4.5 0
v -25 -7 0
v -25.5 -7 0
v -25.5 -6.5 0
v -25 -6.5 0

# Texture cooridinates (Count = 4)
vt 0 0
vt 1 0
vt 1 1
vt 0 1

# Normal
vn 0 0 -1

# Mesh description
g level_2_5_mesh_0012

# Faces
f 1/1/1 2/2/1 3/3/1 4/4/1
f 5/1/1 6/2/1 7/3/1 8/4/1
f 9/1/1 10/2/1 11/3/1 12/4/1
f 13/1/1 14/2/1 15/3/1 16/4/1

