# Tiled2Unity generated file. Do not modify by hand.
# Wavefront file for 'level_2_5_mesh_0010.obj'

# Vertices (Count = 24)
v -6.5 -3.5 0
v -7 -3.5 0
v -7 -3 0
v -6.5 -3 0
v -16.5 -3.5 0
v -17 -3.5 0
v -17 -3 0
v -16.5 -3 0
v -18.5 -5 0
v -19 -5 0
v -19 -4.5 0
v -18.5 -4.5 0
v -2 -7 0
v -2.5 -7 0
v -2.5 -6.5 0
v -2 -6.5 0
v -20.5 -7 0
v -21 -7 0
v -21 -6.5 0
v -20.5 -6.5 0
v -22 -10 0
v -22.5 -10 0
v -22.5 -9.5 0
v -22 -9.5 0

# Texture cooridinates (Count = 4)
vt 0 0
vt 1 0
vt 1 1
vt 0 1

# Normal
vn 0 0 -1

# Mesh description
g level_2_5_mesh_0010

# Faces
f 1/1/1 2/2/1 3/3/1 4/4/1
f 5/1/1 6/2/1 7/3/1 8/4/1
f 9/1/1 10/2/1 11/3/1 12/4/1
f 13/1/1 14/2/1 15/3/1 16/4/1
f 17/1/1 18/2/1 19/3/1 20/4/1
f 21/1/1 22/2/1 23/3/1 24/4/1

