# Tiled2Unity generated file. Do not modify by hand.
# Wavefront file for 'map1_mesh_0010.obj'

# Vertices (Count = 40)
v -5289 -6450 0
v -5417 -6450 0
v -5417 -6351 0
v -5289 -6351 0
v -5418 -6450 0
v -5546 -6450 0
v -5546 -6351 0
v -5418 -6351 0
v -5547 -6450 0
v -5675 -6450 0
v -5675 -6351 0
v -5547 -6351 0
v -5676 -6450 0
v -5804 -6450 0
v -5804 -6351 0
v -5676 -6351 0
v -5805 -6450 0
v -5933 -6450 0
v -5933 -6351 0
v -5805 -6351 0
v -7224 -6450 0
v -7352 -6450 0
v -7352 -6351 0
v -7224 -6351 0
v -7353 -6450 0
v -7481 -6450 0
v -7481 -6351 0
v -7353 -6351 0
v -7482 -6450 0
v -7610 -6450 0
v -7610 -6351 0
v -7482 -6351 0
v -7611 -6450 0
v -7739 -6450 0
v -7739 -6351 0
v -7611 -6351 0
v -7740 -6450 0
v -7868 -6450 0
v -7868 -6351 0
v -7740 -6351 0

# Texture cooridinates (Count = 4)
vt 0 0
vt 1 0
vt 1 1
vt 0 1

# Normal
vn 0 0 -1

# Mesh description
g map1_mesh_0010

# Faces
f 1/1/1 2/2/1 3/3/1 4/4/1
f 5/1/1 6/2/1 7/3/1 8/4/1
f 9/1/1 10/2/1 11/3/1 12/4/1
f 13/1/1 14/2/1 15/3/1 16/4/1
f 17/1/1 18/2/1 19/3/1 20/4/1
f 21/1/1 22/2/1 23/3/1 24/4/1
f 25/1/1 26/2/1 27/3/1 28/4/1
f 29/1/1 30/2/1 31/3/1 32/4/1
f 33/1/1 34/2/1 35/3/1 36/4/1
f 37/1/1 38/2/1 39/3/1 40/4/1

