# Tiled2Unity generated file. Do not modify by hand.
# Wavefront file for 'map1_mesh_0002.obj'

# Vertices (Count = 52)
v -6321 -5934 0
v -6449 -5934 0
v -6449 -5806 0
v -6321 -5806 0
v -6450 -5934 0
v -6578 -5934 0
v -6578 -5806 0
v -6450 -5806 0
v -6579 -5934 0
v -6707 -5934 0
v -6707 -5806 0
v -6579 -5806 0
v -6708 -5934 0
v -6836 -5934 0
v -6836 -5806 0
v -6708 -5806 0
v -5934 -6450 0
v -6062 -6450 0
v -6062 -6322 0
v -5934 -6322 0
v -6063 -6450 0
v -6191 -6450 0
v -6191 -6322 0
v -6063 -6322 0
v -6192 -6450 0
v -6320 -6450 0
v -6320 -6322 0
v -6192 -6322 0
v -6321 -6450 0
v -6449 -6450 0
v -6449 -6322 0
v -6321 -6322 0
v -6450 -6450 0
v -6578 -6450 0
v -6578 -6322 0
v -6450 -6322 0
v -6579 -6450 0
v -6707 -6450 0
v -6707 -6322 0
v -6579 -6322 0
v -6708 -6450 0
v -6836 -6450 0
v -6836 -6322 0
v -6708 -6322 0
v -6837 -6450 0
v -6965 -6450 0
v -6965 -6322 0
v -6837 -6322 0
v -6966 -6450 0
v -7094 -6450 0
v -7094 -6322 0
v -6966 -6322 0

# Texture cooridinates (Count = 4)
vt 0 0
vt 1 0
vt 1 1
vt 0 1

# Normal
vn 0 0 -1

# Mesh description
g map1_mesh_0002

# Faces
f 1/1/1 2/2/1 3/3/1 4/4/1
f 5/1/1 6/2/1 7/3/1 8/4/1
f 9/1/1 10/2/1 11/3/1 12/4/1
f 13/1/1 14/2/1 15/3/1 16/4/1
f 17/1/1 18/2/1 19/3/1 20/4/1
f 21/1/1 22/2/1 23/3/1 24/4/1
f 25/1/1 26/2/1 27/3/1 28/4/1
f 29/1/1 30/2/1 31/3/1 32/4/1
f 33/1/1 34/2/1 35/3/1 36/4/1
f 37/1/1 38/2/1 39/3/1 40/4/1
f 41/1/1 42/2/1 43/3/1 44/4/1
f 45/1/1 46/2/1 47/3/1 48/4/1
f 49/1/1 50/2/1 51/3/1 52/4/1

