# Tiled2Unity generated file. Do not modify by hand.
# Wavefront file for 'level_2_3_mesh_0004.obj'

# Vertices (Count = 80)
v -3 -3 0
v -3.5 -3 0
v -3.5 -2.5 0
v -3 -2.5 0
v -6.5 -3 0
v -7 -3 0
v -7 -2.5 0
v -6.5 -2.5 0
v -10 -3 0
v -10.5 -3 0
v -10.5 -2.5 0
v -10 -2.5 0
v -13.5 -3 0
v -14 -3 0
v -14 -2.5 0
v -13.5 -2.5 0
v -17 -3 0
v -17.5 -3 0
v -17.5 -2.5 0
v -17 -2.5 0
v -20.5 -3 0
v -21 -3 0
v -21 -2.5 0
v -20.5 -2.5 0
v -24 -3 0
v -24.5 -3 0
v -24.5 -2.5 0
v -24 -2.5 0
v -3 -5 0
v -3.5 -5 0
v -3.5 -4.5 0
v -3 -4.5 0
v -6.5 -5 0
v -7 -5 0
v -7 -4.5 0
v -6.5 -4.5 0
v -10 -5 0
v -10.5 -5 0
v -10.5 -4.5 0
v -10 -4.5 0
v -13.5 -5 0
v -14 -5 0
v -14 -4.5 0
v -13.5 -4.5 0
v -17 -5 0
v -17.5 -5 0
v -17.5 -4.5 0
v -17 -4.5 0
v -20.5 -5 0
v -21 -5 0
v -21 -4.5 0
v -20.5 -4.5 0
v -24 -5 0
v -24.5 -5 0
v -24.5 -4.5 0
v -24 -4.5 0
v -3 -7 0
v -3.5 -7 0
v -3.5 -6.5 0
v -3 -6.5 0
v -6.5 -7 0
v -7 -7 0
v -7 -6.5 0
v -6.5 -6.5 0
v -10 -7 0
v -10.5 -7 0
v -10.5 -6.5 0
v -10 -6.5 0
v -13.5 -7 0
v -14 -7 0
v -14 -6.5 0
v -13.5 -6.5 0
v -17 -7 0
v -17.5 -7 0
v -17.5 -6.5 0
v -17 -6.5 0
v -20.5 -7 0
v -21 -7 0
v -21 -6.5 0
v -20.5 -6.5 0

# Texture cooridinates (Count = 4)
vt 0 0
vt 1 0
vt 1 1
vt 0 1

# Normal
vn 0 0 -1

# Mesh description
g level_2_3_mesh_0004

# Faces
f 1/1/1 2/2/1 3/3/1 4/4/1
f 5/1/1 6/2/1 7/3/1 8/4/1
f 9/1/1 10/2/1 11/3/1 12/4/1
f 13/1/1 14/2/1 15/3/1 16/4/1
f 17/1/1 18/2/1 19/3/1 20/4/1
f 21/1/1 22/2/1 23/3/1 24/4/1
f 25/1/1 26/2/1 27/3/1 28/4/1
f 29/1/1 30/2/1 31/3/1 32/4/1
f 33/1/1 34/2/1 35/3/1 36/4/1
f 37/1/1 38/2/1 39/3/1 40/4/1
f 41/1/1 42/2/1 43/3/1 44/4/1
f 45/1/1 46/2/1 47/3/1 48/4/1
f 49/1/1 50/2/1 51/3/1 52/4/1
f 53/1/1 54/2/1 55/3/1 56/4/1
f 57/1/1 58/2/1 59/3/1 60/4/1
f 61/1/1 62/2/1 63/3/1 64/4/1
f 65/1/1 66/2/1 67/3/1 68/4/1
f 69/1/1 70/2/1 71/3/1 72/4/1
f 73/1/1 74/2/1 75/3/1 76/4/1
f 77/1/1 78/2/1 79/3/1 80/4/1

