# Tiled2Unity generated file. Do not modify by hand.
# Wavefront file for 'level_2_story_mesh_0009.obj'

# Vertices (Count = 920)
v -2 -1 0
v -2.5 -1 0
v -2.5 -0.5 0
v -2 -0.5 0
v -33 -1 0
v -33.5 -1 0
v -33.5 -0.5 0
v -33 -0.5 0
v -2 -2 0
v -2.5 -2 0
v -2.5 -1.5 0
v -2 -1.5 0
v -33 -2 0
v -33.5 -2 0
v -33.5 -1.5 0
v -33 -1.5 0
v -5.5 -2.5 0
v -6 -2.5 0
v -6 -2 0
v -5.5 -2 0
v -6.5 -2.5 0
v -7 -2.5 0
v -7 -2 0
v -6.5 -2 0
v -7.5 -2.5 0
v -8 -2.5 0
v -8 -2 0
v -7.5 -2 0
v -8.5 -2.5 0
v -9 -2.5 0
v -9 -2 0
v -8.5 -2 0
v -9.5 -2.5 0
v -10 -2.5 0
v -10 -2 0
v -9.5 -2 0
v -10.5 -2.5 0
v -11 -2.5 0
v -11 -2 0
v -10.5 -2 0
v -11.5 -2.5 0
v -12 -2.5 0
v -12 -2 0
v -11.5 -2 0
v -12.5 -2.5 0
v -13 -2.5 0
v -13 -2 0
v -12.5 -2 0
v -13.5 -2.5 0
v -14 -2.5 0
v -14 -2 0
v -13.5 -2 0
v -14.5 -2.5 0
v -15 -2.5 0
v -15 -2 0
v -14.5 -2 0
v -15.5 -2.5 0
v -16 -2.5 0
v -16 -2 0
v -15.5 -2 0
v -16.5 -2.5 0
v -17 -2.5 0
v -17 -2 0
v -16.5 -2 0
v -17.5 -2.5 0
v -18 -2.5 0
v -18 -2 0
v -17.5 -2 0
v -18.5 -2.5 0
v -19 -2.5 0
v -19 -2 0
v -18.5 -2 0
v -19.5 -2.5 0
v -20 -2.5 0
v -20 -2 0
v -19.5 -2 0
v -20.5 -2.5 0
v -21 -2.5 0
v -21 -2 0
v -20.5 -2 0
v -21.5 -2.5 0
v -22 -2.5 0
v -22 -2 0
v -21.5 -2 0
v -22.5 -2.5 0
v -23 -2.5 0
v -23 -2 0
v -22.5 -2 0
v -23.5 -2.5 0
v -24 -2.5 0
v -24 -2 0
v -23.5 -2 0
v -24.5 -2.5 0
v -25 -2.5 0
v -25 -2 0
v -24.5 -2 0
v -25.5 -2.5 0
v -26 -2.5 0
v -26 -2 0
v -25.5 -2 0
v -26.5 -2.5 0
v -27 -2.5 0
v -27 -2 0
v -26.5 -2 0
v -27.5 -2.5 0
v -28 -2.5 0
v -28 -2 0
v -27.5 -2 0
v -28.5 -2.5 0
v -29 -2.5 0
v -29 -2 0
v -28.5 -2 0
v -29.5 -2.5 0
v -30 -2.5 0
v -30 -2 0
v -29.5 -2 0
v -30.5 -2.5 0
v -31 -2.5 0
v -31 -2 0
v -30.5 -2 0
v -31.5 -2.5 0
v -32 -2.5 0
v -32 -2 0
v -31.5 -2 0
v -2 -3 0
v -2.5 -3 0
v -2.5 -2.5 0
v -2 -2.5 0
v -5 -3 0
v -5.5 -3 0
v -5.5 -2.5 0
v -5 -2.5 0
v -6 -3 0
v -6.5 -3 0
v -6.5 -2.5 0
v -6 -2.5 0
v -7 -3 0
v -7.5 -3 0
v -7.5 -2.5 0
v -7 -2.5 0
v -8 -3 0
v -8.5 -3 0
v -8.5 -2.5 0
v -8 -2.5 0
v -9 -3 0
v -9.5 -3 0
v -9.5 -2.5 0
v -9 -2.5 0
v -10 -3 0
v -10.5 -3 0
v -10.5 -2.5 0
v -10 -2.5 0
v -11 -3 0
v -11.5 -3 0
v -11.5 -2.5 0
v -11 -2.5 0
v -12 -3 0
v -12.5 -3 0
v -12.5 -2.5 0
v -12 -2.5 0
v -13 -3 0
v -13.5 -3 0
v -13.5 -2.5 0
v -13 -2.5 0
v -14 -3 0
v -14.5 -3 0
v -14.5 -2.5 0
v -14 -2.5 0
v -15 -3 0
v -15.5 -3 0
v -15.5 -2.5 0
v -15 -2.5 0
v -16 -3 0
v -16.5 -3 0
v -16.5 -2.5 0
v -16 -2.5 0
v -17 -3 0
v -17.5 -3 0
v -17.5 -2.5 0
v -17 -2.5 0
v -18 -3 0
v -18.5 -3 0
v -18.5 -2.5 0
v -18 -2.5 0
v -19 -3 0
v -19.5 -3 0
v -19.5 -2.5 0
v -19 -2.5 0
v -20 -3 0
v -20.5 -3 0
v -20.5 -2.5 0
v -20 -2.5 0
v -21 -3 0
v -21.5 -3 0
v -21.5 -2.5 0
v -21 -2.5 0
v -22 -3 0
v -22.5 -3 0
v -22.5 -2.5 0
v -22 -2.5 0
v -23 -3 0
v -23.5 -3 0
v -23.5 -2.5 0
v -23 -2.5 0
v -24 -3 0
v -24.5 -3 0
v -24.5 -2.5 0
v -24 -2.5 0
v -25 -3 0
v -25.5 -3 0
v -25.5 -2.5 0
v -25 -2.5 0
v -26 -3 0
v -26.5 -3 0
v -26.5 -2.5 0
v -26 -2.5 0
v -27 -3 0
v -27.5 -3 0
v -27.5 -2.5 0
v -27 -2.5 0
v -28 -3 0
v -28.5 -3 0
v -28.5 -2.5 0
v -28 -2.5 0
v -29 -3 0
v -29.5 -3 0
v -29.5 -2.5 0
v -29 -2.5 0
v -30 -3 0
v -30.5 -3 0
v -30.5 -2.5 0
v -30 -2.5 0
v -31 -3 0
v -31.5 -3 0
v -31.5 -2.5 0
v -31 -2.5 0
v -33 -3 0
v -33.5 -3 0
v -33.5 -2.5 0
v -33 -2.5 0
v -21.5 -3.5 0
v -22 -3.5 0
v -22 -3 0
v -21.5 -3 0
v -2 -4 0
v -2.5 -4 0
v -2.5 -3.5 0
v -2 -3.5 0
v -33 -4 0
v -33.5 -4 0
v -33.5 -3.5 0
v -33 -3.5 0
v -21.5 -4.5 0
v -22 -4.5 0
v -22 -4 0
v -21.5 -4 0
v -2 -5 0
v -2.5 -5 0
v -2.5 -4.5 0
v -2 -4.5 0
v -33 -5 0
v -33.5 -5 0
v -33.5 -4.5 0
v -33 -4.5 0
v -21.5 -5.5 0
v -22 -5.5 0
v -22 -5 0
v -21.5 -5 0
v -2 -6 0
v -2.5 -6 0
v -2.5 -5.5 0
v -2 -5.5 0
v -33 -6 0
v -33.5 -6 0
v -33.5 -5.5 0
v -33 -5.5 0
v -2 -7 0
v -2.5 -7 0
v -2.5 -6.5 0
v -2 -6.5 0
v -3 -7 0
v -3.5 -7 0
v -3.5 -6.5 0
v -3 -6.5 0
v -4 -7 0
v -4.5 -7 0
v -4.5 -6.5 0
v -4 -6.5 0
v -5 -7 0
v -5.5 -7 0
v -5.5 -6.5 0
v -5 -6.5 0
v -6 -7 0
v -6.5 -7 0
v -6.5 -6.5 0
v -6 -6.5 0
v -7 -7 0
v -7.5 -7 0
v -7.5 -6.5 0
v -7 -6.5 0
v -8 -7 0
v -8.5 -7 0
v -8.5 -6.5 0
v -8 -6.5 0
v -9 -7 0
v -9.5 -7 0
v -9.5 -6.5 0
v -9 -6.5 0
v -10 -7 0
v -10.5 -7 0
v -10.5 -6.5 0
v -10 -6.5 0
v -11 -7 0
v -11.5 -7 0
v -11.5 -6.5 0
v -11 -6.5 0
v -12 -7 0
v -12.5 -7 0
v -12.5 -6.5 0
v -12 -6.5 0
v -13 -7 0
v -13.5 -7 0
v -13.5 -6.5 0
v -13 -6.5 0
v -14 -7 0
v -14.5 -7 0
v -14.5 -6.5 0
v -14 -6.5 0
v -15 -7 0
v -15.5 -7 0
v -15.5 -6.5 0
v -15 -6.5 0
v -16 -7 0
v -16.5 -7 0
v -16.5 -6.5 0
v -16 -6.5 0
v -17 -7 0
v -17.5 -7 0
v -17.5 -6.5 0
v -17 -6.5 0
v -18 -7 0
v -18.5 -7 0
v -18.5 -6.5 0
v -18 -6.5 0
v -19 -7 0
v -19.5 -7 0
v -19.5 -6.5 0
v -19 -6.5 0
v -20 -7 0
v -20.5 -7 0
v -20.5 -6.5 0
v -20 -6.5 0
v -21 -7 0
v -21.5 -7 0
v -21.5 -6.5 0
v -21 -6.5 0
v -22 -7 0
v -22.5 -7 0
v -22.5 -6.5 0
v -22 -6.5 0
v -23 -7 0
v -23.5 -7 0
v -23.5 -6.5 0
v -23 -6.5 0
v -24 -7 0
v -24.5 -7 0
v -24.5 -6.5 0
v -24 -6.5 0
v -25 -7 0
v -25.5 -7 0
v -25.5 -6.5 0
v -25 -6.5 0
v -26 -7 0
v -26.5 -7 0
v -26.5 -6.5 0
v -26 -6.5 0
v -27 -7 0
v -27.5 -7 0
v -27.5 -6.5 0
v -27 -6.5 0
v -28 -7 0
v -28.5 -7 0
v -28.5 -6.5 0
v -28 -6.5 0
v -29 -7 0
v -29.5 -7 0
v -29.5 -6.5 0
v -29 -6.5 0
v -33 -7 0
v -33.5 -7 0
v -33.5 -6.5 0
v -33 -6.5 0
v -1.5 -7.5 0
v -2 -7.5 0
v -2 -7 0
v -1.5 -7 0
v -2.5 -7.5 0
v -3 -7.5 0
v -3 -7 0
v -2.5 -7 0
v -3.5 -7.5 0
v -4 -7.5 0
v -4 -7 0
v -3.5 -7 0
v -4.5 -7.5 0
v -5 -7.5 0
v -5 -7 0
v -4.5 -7 0
v -5.5 -7.5 0
v -6 -7.5 0
v -6 -7 0
v -5.5 -7 0
v -6.5 -7.5 0
v -7 -7.5 0
v -7 -7 0
v -6.5 -7 0
v -7.5 -7.5 0
v -8 -7.5 0
v -8 -7 0
v -7.5 -7 0
v -8.5 -7.5 0
v -9 -7.5 0
v -9 -7 0
v -8.5 -7 0
v -9.5 -7.5 0
v -10 -7.5 0
v -10 -7 0
v -9.5 -7 0
v -10.5 -7.5 0
v -11 -7.5 0
v -11 -7 0
v -10.5 -7 0
v -11.5 -7.5 0
v -12 -7.5 0
v -12 -7 0
v -11.5 -7 0
v -12.5 -7.5 0
v -13 -7.5 0
v -13 -7 0
v -12.5 -7 0
v -13.5 -7.5 0
v -14 -7.5 0
v -14 -7 0
v -13.5 -7 0
v -14.5 -7.5 0
v -15 -7.5 0
v -15 -7 0
v -14.5 -7 0
v -15.5 -7.5 0
v -16 -7.5 0
v -16 -7 0
v -15.5 -7 0
v -16.5 -7.5 0
v -17 -7.5 0
v -17 -7 0
v -16.5 -7 0
v -17.5 -7.5 0
v -18 -7.5 0
v -18 -7 0
v -17.5 -7 0
v -18.5 -7.5 0
v -19 -7.5 0
v -19 -7 0
v -18.5 -7 0
v -19.5 -7.5 0
v -20 -7.5 0
v -20 -7 0
v -19.5 -7 0
v -20.5 -7.5 0
v -21 -7.5 0
v -21 -7 0
v -20.5 -7 0
v -21.5 -7.5 0
v -22 -7.5 0
v -22 -7 0
v -21.5 -7 0
v -22.5 -7.5 0
v -23 -7.5 0
v -23 -7 0
v -22.5 -7 0
v -23.5 -7.5 0
v -24 -7.5 0
v -24 -7 0
v -23.5 -7 0
v -24.5 -7.5 0
v -25 -7.5 0
v -25 -7 0
v -24.5 -7 0
v -25.5 -7.5 0
v -26 -7.5 0
v -26 -7 0
v -25.5 -7 0
v -26.5 -7.5 0
v -27 -7.5 0
v -27 -7 0
v -26.5 -7 0
v -27.5 -7.5 0
v -28 -7.5 0
v -28 -7 0
v -27.5 -7 0
v -28.5 -7.5 0
v -29 -7.5 0
v -29 -7 0
v -28.5 -7 0
v -2 -8 0
v -2.5 -8 0
v -2.5 -7.5 0
v -2 -7.5 0
v -33 -8 0
v -33.5 -8 0
v -33.5 -7.5 0
v -33 -7.5 0
v -2 -9 0
v -2.5 -9 0
v -2.5 -8.5 0
v -2 -8.5 0
v -33 -9 0
v -33.5 -9 0
v -33.5 -8.5 0
v -33 -8.5 0
v -2 -10 0
v -2.5 -10 0
v -2.5 -9.5 0
v -2 -9.5 0
v -33 -10 0
v -33.5 -10 0
v -33.5 -9.5 0
v -33 -9.5 0
v -2 -11 0
v -2.5 -11 0
v -2.5 -10.5 0
v -2 -10.5 0
v -33 -11 0
v -33.5 -11 0
v -33.5 -10.5 0
v -33 -10.5 0
v -1.5 -11.5 0
v -2 -11.5 0
v -2 -11 0
v -1.5 -11 0
v -2.5 -11.5 0
v -3 -11.5 0
v -3 -11 0
v -2.5 -11 0
v -3.5 -11.5 0
v -4 -11.5 0
v -4 -11 0
v -3.5 -11 0
v -4.5 -11.5 0
v -5 -11.5 0
v -5 -11 0
v -4.5 -11 0
v -5.5 -11.5 0
v -6 -11.5 0
v -6 -11 0
v -5.5 -11 0
v -6.5 -11.5 0
v -7 -11.5 0
v -7 -11 0
v -6.5 -11 0
v -7.5 -11.5 0
v -8 -11.5 0
v -8 -11 0
v -7.5 -11 0
v -8.5 -11.5 0
v -9 -11.5 0
v -9 -11 0
v -8.5 -11 0
v -9.5 -11.5 0
v -10 -11.5 0
v -10 -11 0
v -9.5 -11 0
v -10.5 -11.5 0
v -11 -11.5 0
v -11 -11 0
v -10.5 -11 0
v -11.5 -11.5 0
v -12 -11.5 0
v -12 -11 0
v -11.5 -11 0
v -12.5 -11.5 0
v -13 -11.5 0
v -13 -11 0
v -12.5 -11 0
v -13.5 -11.5 0
v -14 -11.5 0
v -14 -11 0
v -13.5 -11 0
v -14.5 -11.5 0
v -15 -11.5 0
v -15 -11 0
v -14.5 -11 0
v -15.5 -11.5 0
v -16 -11.5 0
v -16 -11 0
v -15.5 -11 0
v -16.5 -11.5 0
v -17 -11.5 0
v -17 -11 0
v -16.5 -11 0
v -17.5 -11.5 0
v -18 -11.5 0
v -18 -11 0
v -17.5 -11 0
v -18.5 -11.5 0
v -19 -11.5 0
v -19 -11 0
v -18.5 -11 0
v -19.5 -11.5 0
v -20 -11.5 0
v -20 -11 0
v -19.5 -11 0
v -20.5 -11.5 0
v -21 -11.5 0
v -21 -11 0
v -20.5 -11 0
v -21.5 -11.5 0
v -22 -11.5 0
v -22 -11 0
v -21.5 -11 0
v -22.5 -11.5 0
v -23 -11.5 0
v -23 -11 0
v -22.5 -11 0
v -23.5 -11.5 0
v -24 -11.5 0
v -24 -11 0
v -23.5 -11 0
v -24.5 -11.5 0
v -25 -11.5 0
v -25 -11 0
v -24.5 -11 0
v -25.5 -11.5 0
v -26 -11.5 0
v -26 -11 0
v -25.5 -11 0
v -26.5 -11.5 0
v -27 -11.5 0
v -27 -11 0
v -26.5 -11 0
v -27.5 -11.5 0
v -28 -11.5 0
v -28 -11 0
v -27.5 -11 0
v -28.5 -11.5 0
v -29 -11.5 0
v -29 -11 0
v -28.5 -11 0
v -29.5 -11.5 0
v -30 -11.5 0
v -30 -11 0
v -29.5 -11 0
v -30.5 -11.5 0
v -31 -11.5 0
v -31 -11 0
v -30.5 -11 0
v -31.5 -11.5 0
v -32 -11.5 0
v -32 -11 0
v -31.5 -11 0
v -32.5 -11.5 0
v -33 -11.5 0
v -33 -11 0
v -32.5 -11 0
v -2 -12 0
v -2.5 -12 0
v -2.5 -11.5 0
v -2 -11.5 0
v -3 -12 0
v -3.5 -12 0
v -3.5 -11.5 0
v -3 -11.5 0
v -4 -12 0
v -4.5 -12 0
v -4.5 -11.5 0
v -4 -11.5 0
v -5 -12 0
v -5.5 -12 0
v -5.5 -11.5 0
v -5 -11.5 0
v -6 -12 0
v -6.5 -12 0
v -6.5 -11.5 0
v -6 -11.5 0
v -7 -12 0
v -7.5 -12 0
v -7.5 -11.5 0
v -7 -11.5 0
v -8 -12 0
v -8.5 -12 0
v -8.5 -11.5 0
v -8 -11.5 0
v -9 -12 0
v -9.5 -12 0
v -9.5 -11.5 0
v -9 -11.5 0
v -10 -12 0
v -10.5 -12 0
v -10.5 -11.5 0
v -10 -11.5 0
v -11 -12 0
v -11.5 -12 0
v -11.5 -11.5 0
v -11 -11.5 0
v -12 -12 0
v -12.5 -12 0
v -12.5 -11.5 0
v -12 -11.5 0
v -13 -12 0
v -13.5 -12 0
v -13.5 -11.5 0
v -13 -11.5 0
v -14 -12 0
v -14.5 -12 0
v -14.5 -11.5 0
v -14 -11.5 0
v -15 -12 0
v -15.5 -12 0
v -15.5 -11.5 0
v -15 -11.5 0
v -16 -12 0
v -16.5 -12 0
v -16.5 -11.5 0
v -16 -11.5 0
v -17 -12 0
v -17.5 -12 0
v -17.5 -11.5 0
v -17 -11.5 0
v -18 -12 0
v -18.5 -12 0
v -18.5 -11.5 0
v -18 -11.5 0
v -19 -12 0
v -19.5 -12 0
v -19.5 -11.5 0
v -19 -11.5 0
v -20 -12 0
v -20.5 -12 0
v -20.5 -11.5 0
v -20 -11.5 0
v -21 -12 0
v -21.5 -12 0
v -21.5 -11.5 0
v -21 -11.5 0
v -22 -12 0
v -22.5 -12 0
v -22.5 -11.5 0
v -22 -11.5 0
v -23 -12 0
v -23.5 -12 0
v -23.5 -11.5 0
v -23 -11.5 0
v -24 -12 0
v -24.5 -12 0
v -24.5 -11.5 0
v -24 -11.5 0
v -25 -12 0
v -25.5 -12 0
v -25.5 -11.5 0
v -25 -11.5 0
v -26 -12 0
v -26.5 -12 0
v -26.5 -11.5 0
v -26 -11.5 0
v -27 -12 0
v -27.5 -12 0
v -27.5 -11.5 0
v -27 -11.5 0
v -28 -12 0
v -28.5 -12 0
v -28.5 -11.5 0
v -28 -11.5 0
v -29 -12 0
v -29.5 -12 0
v -29.5 -11.5 0
v -29 -11.5 0
v -30 -12 0
v -30.5 -12 0
v -30.5 -11.5 0
v -30 -11.5 0
v -31 -12 0
v -31.5 -12 0
v -31.5 -11.5 0
v -31 -11.5 0
v -32 -12 0
v -32.5 -12 0
v -32.5 -11.5 0
v -32 -11.5 0
v -33 -12 0
v -33.5 -12 0
v -33.5 -11.5 0
v -33 -11.5 0
v -1.5 -12.5 0
v -2 -12.5 0
v -2 -12 0
v -1.5 -12 0
v -2.5 -12.5 0
v -3 -12.5 0
v -3 -12 0
v -2.5 -12 0
v -3.5 -12.5 0
v -4 -12.5 0
v -4 -12 0
v -3.5 -12 0
v -4.5 -12.5 0
v -5 -12.5 0
v -5 -12 0
v -4.5 -12 0
v -5.5 -12.5 0
v -6 -12.5 0
v -6 -12 0
v -5.5 -12 0
v -6.5 -12.5 0
v -7 -12.5 0
v -7 -12 0
v -6.5 -12 0
v -7.5 -12.5 0
v -8 -12.5 0
v -8 -12 0
v -7.5 -12 0
v -8.5 -12.5 0
v -9 -12.5 0
v -9 -12 0
v -8.5 -12 0
v -9.5 -12.5 0
v -10 -12.5 0
v -10 -12 0
v -9.5 -12 0
v -10.5 -12.5 0
v -11 -12.5 0
v -11 -12 0
v -10.5 -12 0
v -11.5 -12.5 0
v -12 -12.5 0
v -12 -12 0
v -11.5 -12 0
v -12.5 -12.5 0
v -13 -12.5 0
v -13 -12 0
v -12.5 -12 0
v -13.5 -12.5 0
v -14 -12.5 0
v -14 -12 0
v -13.5 -12 0
v -14.5 -12.5 0
v -15 -12.5 0
v -15 -12 0
v -14.5 -12 0
v -15.5 -12.5 0
v -16 -12.5 0
v -16 -12 0
v -15.5 -12 0
v -16.5 -12.5 0
v -17 -12.5 0
v -17 -12 0
v -16.5 -12 0
v -17.5 -12.5 0
v -18 -12.5 0
v -18 -12 0
v -17.5 -12 0
v -18.5 -12.5 0
v -19 -12.5 0
v -19 -12 0
v -18.5 -12 0
v -19.5 -12.5 0
v -20 -12.5 0
v -20 -12 0
v -19.5 -12 0
v -20.5 -12.5 0
v -21 -12.5 0
v -21 -12 0
v -20.5 -12 0
v -21.5 -12.5 0
v -22 -12.5 0
v -22 -12 0
v -21.5 -12 0
v -22.5 -12.5 0
v -23 -12.5 0
v -23 -12 0
v -22.5 -12 0
v -23.5 -12.5 0
v -24 -12.5 0
v -24 -12 0
v -23.5 -12 0
v -24.5 -12.5 0
v -25 -12.5 0
v -25 -12 0
v -24.5 -12 0
v -25.5 -12.5 0
v -26 -12.5 0
v -26 -12 0
v -25.5 -12 0
v -26.5 -12.5 0
v -27 -12.5 0
v -27 -12 0
v -26.5 -12 0
v -27.5 -12.5 0
v -28 -12.5 0
v -28 -12 0
v -27.5 -12 0
v -28.5 -12.5 0
v -29 -12.5 0
v -29 -12 0
v -28.5 -12 0
v -29.5 -12.5 0
v -30 -12.5 0
v -30 -12 0
v -29.5 -12 0
v -30.5 -12.5 0
v -31 -12.5 0
v -31 -12 0
v -30.5 -12 0
v -31.5 -12.5 0
v -32 -12.5 0
v -32 -12 0
v -31.5 -12 0
v -32.5 -12.5 0
v -33 -12.5 0
v -33 -12 0
v -32.5 -12 0

# Texture cooridinates (Count = 4)
vt 0 0
vt 1 0
vt 1 1
vt 0 1

# Normal
vn 0 0 -1

# Mesh description
g level_2_story_mesh_0009

# Faces
f 1/1/1 2/2/1 3/3/1 4/4/1
f 5/1/1 6/2/1 7/3/1 8/4/1
f 9/1/1 10/2/1 11/3/1 12/4/1
f 13/1/1 14/2/1 15/3/1 16/4/1
f 17/1/1 18/2/1 19/3/1 20/4/1
f 21/1/1 22/2/1 23/3/1 24/4/1
f 25/1/1 26/2/1 27/3/1 28/4/1
f 29/1/1 30/2/1 31/3/1 32/4/1
f 33/1/1 34/2/1 35/3/1 36/4/1
f 37/1/1 38/2/1 39/3/1 40/4/1
f 41/1/1 42/2/1 43/3/1 44/4/1
f 45/1/1 46/2/1 47/3/1 48/4/1
f 49/1/1 50/2/1 51/3/1 52/4/1
f 53/1/1 54/2/1 55/3/1 56/4/1
f 57/1/1 58/2/1 59/3/1 60/4/1
f 61/1/1 62/2/1 63/3/1 64/4/1
f 65/1/1 66/2/1 67/3/1 68/4/1
f 69/1/1 70/2/1 71/3/1 72/4/1
f 73/1/1 74/2/1 75/3/1 76/4/1
f 77/1/1 78/2/1 79/3/1 80/4/1
f 81/1/1 82/2/1 83/3/1 84/4/1
f 85/1/1 86/2/1 87/3/1 88/4/1
f 89/1/1 90/2/1 91/3/1 92/4/1
f 93/1/1 94/2/1 95/3/1 96/4/1
f 97/1/1 98/2/1 99/3/1 100/4/1
f 101/1/1 102/2/1 103/3/1 104/4/1
f 105/1/1 106/2/1 107/3/1 108/4/1
f 109/1/1 110/2/1 111/3/1 112/4/1
f 113/1/1 114/2/1 115/3/1 116/4/1
f 117/1/1 118/2/1 119/3/1 120/4/1
f 121/1/1 122/2/1 123/3/1 124/4/1
f 125/1/1 126/2/1 127/3/1 128/4/1
f 129/3/1 130/4/1 131/1/1 132/2/1
f 133/3/1 134/4/1 135/1/1 136/2/1
f 137/3/1 138/4/1 139/1/1 140/2/1
f 141/3/1 142/4/1 143/1/1 144/2/1
f 145/3/1 146/4/1 147/1/1 148/2/1
f 149/3/1 150/4/1 151/1/1 152/2/1
f 153/3/1 154/4/1 155/1/1 156/2/1
f 157/3/1 158/4/1 159/1/1 160/2/1
f 161/3/1 162/4/1 163/1/1 164/2/1
f 165/3/1 166/4/1 167/1/1 168/2/1
f 169/3/1 170/4/1 171/1/1 172/2/1
f 173/3/1 174/4/1 175/1/1 176/2/1
f 177/3/1 178/4/1 179/1/1 180/2/1
f 181/3/1 182/4/1 183/1/1 184/2/1
f 185/3/1 186/4/1 187/1/1 188/2/1
f 189/3/1 190/4/1 191/1/1 192/2/1
f 193/3/1 194/4/1 195/1/1 196/2/1
f 197/3/1 198/4/1 199/1/1 200/2/1
f 201/3/1 202/4/1 203/1/1 204/2/1
f 205/3/1 206/4/1 207/1/1 208/2/1
f 209/3/1 210/4/1 211/1/1 212/2/1
f 213/3/1 214/4/1 215/1/1 216/2/1
f 217/3/1 218/4/1 219/1/1 220/2/1
f 221/3/1 222/4/1 223/1/1 224/2/1
f 225/3/1 226/4/1 227/1/1 228/2/1
f 229/3/1 230/4/1 231/1/1 232/2/1
f 233/3/1 234/4/1 235/1/1 236/2/1
f 237/1/1 238/2/1 239/3/1 240/4/1
f 241/1/1 242/2/1 243/3/1 244/4/1
f 245/1/1 246/2/1 247/3/1 248/4/1
f 249/1/1 250/2/1 251/3/1 252/4/1
f 253/1/1 254/2/1 255/3/1 256/4/1
f 257/1/1 258/2/1 259/3/1 260/4/1
f 261/1/1 262/2/1 263/3/1 264/4/1
f 265/1/1 266/2/1 267/3/1 268/4/1
f 269/1/1 270/2/1 271/3/1 272/4/1
f 273/1/1 274/2/1 275/3/1 276/4/1
f 277/1/1 278/2/1 279/3/1 280/4/1
f 281/1/1 282/2/1 283/3/1 284/4/1
f 285/1/1 286/2/1 287/3/1 288/4/1
f 289/1/1 290/2/1 291/3/1 292/4/1
f 293/1/1 294/2/1 295/3/1 296/4/1
f 297/1/1 298/2/1 299/3/1 300/4/1
f 301/1/1 302/2/1 303/3/1 304/4/1
f 305/1/1 306/2/1 307/3/1 308/4/1
f 309/1/1 310/2/1 311/3/1 312/4/1
f 313/1/1 314/2/1 315/3/1 316/4/1
f 317/1/1 318/2/1 319/3/1 320/4/1
f 321/1/1 322/2/1 323/3/1 324/4/1
f 325/1/1 326/2/1 327/3/1 328/4/1
f 329/1/1 330/2/1 331/3/1 332/4/1
f 333/1/1 334/2/1 335/3/1 336/4/1
f 337/1/1 338/2/1 339/3/1 340/4/1
f 341/1/1 342/2/1 343/3/1 344/4/1
f 345/1/1 346/2/1 347/3/1 348/4/1
f 349/1/1 350/2/1 351/3/1 352/4/1
f 353/1/1 354/2/1 355/3/1 356/4/1
f 357/1/1 358/2/1 359/3/1 360/4/1
f 361/1/1 362/2/1 363/3/1 364/4/1
f 365/1/1 366/2/1 367/3/1 368/4/1
f 369/1/1 370/2/1 371/3/1 372/4/1
f 373/1/1 374/2/1 375/3/1 376/4/1
f 377/1/1 378/2/1 379/3/1 380/4/1
f 381/1/1 382/2/1 383/3/1 384/4/1
f 385/1/1 386/2/1 387/3/1 388/4/1
f 389/1/1 390/2/1 391/3/1 392/4/1
f 393/3/1 394/4/1 395/1/1 396/2/1
f 397/3/1 398/4/1 399/1/1 400/2/1
f 401/3/1 402/4/1 403/1/1 404/2/1
f 405/3/1 406/4/1 407/1/1 408/2/1
f 409/3/1 410/4/1 411/1/1 412/2/1
f 413/3/1 414/4/1 415/1/1 416/2/1
f 417/3/1 418/4/1 419/1/1 420/2/1
f 421/3/1 422/4/1 423/1/1 424/2/1
f 425/3/1 426/4/1 427/1/1 428/2/1
f 429/3/1 430/4/1 431/1/1 432/2/1
f 433/3/1 434/4/1 435/1/1 436/2/1
f 437/3/1 438/4/1 439/1/1 440/2/1
f 441/3/1 442/4/1 443/1/1 444/2/1
f 445/3/1 446/4/1 447/1/1 448/2/1
f 449/3/1 450/4/1 451/1/1 452/2/1
f 453/3/1 454/4/1 455/1/1 456/2/1
f 457/3/1 458/4/1 459/1/1 460/2/1
f 461/3/1 462/4/1 463/1/1 464/2/1
f 465/3/1 466/4/1 467/1/1 468/2/1
f 469/3/1 470/4/1 471/1/1 472/2/1
f 473/3/1 474/4/1 475/1/1 476/2/1
f 477/3/1 478/4/1 479/1/1 480/2/1
f 481/3/1 482/4/1 483/1/1 484/2/1
f 485/3/1 486/4/1 487/1/1 488/2/1
f 489/3/1 490/4/1 491/1/1 492/2/1
f 493/3/1 494/4/1 495/1/1 496/2/1
f 497/3/1 498/4/1 499/1/1 500/2/1
f 501/3/1 502/4/1 503/1/1 504/2/1
f 505/1/1 506/2/1 507/3/1 508/4/1
f 509/1/1 510/2/1 511/3/1 512/4/1
f 513/1/1 514/2/1 515/3/1 516/4/1
f 517/1/1 518/2/1 519/3/1 520/4/1
f 521/1/1 522/2/1 523/3/1 524/4/1
f 525/1/1 526/2/1 527/3/1 528/4/1
f 529/1/1 530/2/1 531/3/1 532/4/1
f 533/1/1 534/2/1 535/3/1 536/4/1
f 537/3/1 538/4/1 539/1/1 540/2/1
f 541/3/1 542/4/1 543/1/1 544/2/1
f 545/3/1 546/4/1 547/1/1 548/2/1
f 549/3/1 550/4/1 551/1/1 552/2/1
f 553/3/1 554/4/1 555/1/1 556/2/1
f 557/3/1 558/4/1 559/1/1 560/2/1
f 561/3/1 562/4/1 563/1/1 564/2/1
f 565/3/1 566/4/1 567/1/1 568/2/1
f 569/3/1 570/4/1 571/1/1 572/2/1
f 573/3/1 574/4/1 575/1/1 576/2/1
f 577/3/1 578/4/1 579/1/1 580/2/1
f 581/3/1 582/4/1 583/1/1 584/2/1
f 585/3/1 586/4/1 587/1/1 588/2/1
f 589/3/1 590/4/1 591/1/1 592/2/1
f 593/3/1 594/4/1 595/1/1 596/2/1
f 597/3/1 598/4/1 599/1/1 600/2/1
f 601/3/1 602/4/1 603/1/1 604/2/1
f 605/3/1 606/4/1 607/1/1 608/2/1
f 609/3/1 610/4/1 611/1/1 612/2/1
f 613/3/1 614/4/1 615/1/1 616/2/1
f 617/3/1 618/4/1 619/1/1 620/2/1
f 621/3/1 622/4/1 623/1/1 624/2/1
f 625/3/1 626/4/1 627/1/1 628/2/1
f 629/3/1 630/4/1 631/1/1 632/2/1
f 633/3/1 634/4/1 635/1/1 636/2/1
f 637/3/1 638/4/1 639/1/1 640/2/1
f 641/3/1 642/4/1 643/1/1 644/2/1
f 645/3/1 646/4/1 647/1/1 648/2/1
f 649/3/1 650/4/1 651/1/1 652/2/1
f 653/3/1 654/4/1 655/1/1 656/2/1
f 657/3/1 658/4/1 659/1/1 660/2/1
f 661/3/1 662/4/1 663/1/1 664/2/1
f 665/1/1 666/2/1 667/3/1 668/4/1
f 669/1/1 670/2/1 671/3/1 672/4/1
f 673/1/1 674/2/1 675/3/1 676/4/1
f 677/1/1 678/2/1 679/3/1 680/4/1
f 681/1/1 682/2/1 683/3/1 684/4/1
f 685/1/1 686/2/1 687/3/1 688/4/1
f 689/1/1 690/2/1 691/3/1 692/4/1
f 693/1/1 694/2/1 695/3/1 696/4/1
f 697/1/1 698/2/1 699/3/1 700/4/1
f 701/1/1 702/2/1 703/3/1 704/4/1
f 705/1/1 706/2/1 707/3/1 708/4/1
f 709/1/1 710/2/1 711/3/1 712/4/1
f 713/1/1 714/2/1 715/3/1 716/4/1
f 717/1/1 718/2/1 719/3/1 720/4/1
f 721/1/1 722/2/1 723/3/1 724/4/1
f 725/1/1 726/2/1 727/3/1 728/4/1
f 729/1/1 730/2/1 731/3/1 732/4/1
f 733/1/1 734/2/1 735/3/1 736/4/1
f 737/1/1 738/2/1 739/3/1 740/4/1
f 741/1/1 742/2/1 743/3/1 744/4/1
f 745/1/1 746/2/1 747/3/1 748/4/1
f 749/1/1 750/2/1 751/3/1 752/4/1
f 753/1/1 754/2/1 755/3/1 756/4/1
f 757/1/1 758/2/1 759/3/1 760/4/1
f 761/1/1 762/2/1 763/3/1 764/4/1
f 765/1/1 766/2/1 767/3/1 768/4/1
f 769/1/1 770/2/1 771/3/1 772/4/1
f 773/1/1 774/2/1 775/3/1 776/4/1
f 777/1/1 778/2/1 779/3/1 780/4/1
f 781/1/1 782/2/1 783/3/1 784/4/1
f 785/1/1 786/2/1 787/3/1 788/4/1
f 789/1/1 790/2/1 791/3/1 792/4/1
f 793/3/1 794/4/1 795/1/1 796/2/1
f 797/3/1 798/4/1 799/1/1 800/2/1
f 801/3/1 802/4/1 803/1/1 804/2/1
f 805/3/1 806/4/1 807/1/1 808/2/1
f 809/3/1 810/4/1 811/1/1 812/2/1
f 813/3/1 814/4/1 815/1/1 816/2/1
f 817/3/1 818/4/1 819/1/1 820/2/1
f 821/3/1 822/4/1 823/1/1 824/2/1
f 825/3/1 826/4/1 827/1/1 828/2/1
f 829/3/1 830/4/1 831/1/1 832/2/1
f 833/3/1 834/4/1 835/1/1 836/2/1
f 837/3/1 838/4/1 839/1/1 840/2/1
f 841/3/1 842/4/1 843/1/1 844/2/1
f 845/3/1 846/4/1 847/1/1 848/2/1
f 849/3/1 850/4/1 851/1/1 852/2/1
f 853/3/1 854/4/1 855/1/1 856/2/1
f 857/3/1 858/4/1 859/1/1 860/2/1
f 861/3/1 862/4/1 863/1/1 864/2/1
f 865/3/1 866/4/1 867/1/1 868/2/1
f 869/3/1 870/4/1 871/1/1 872/2/1
f 873/3/1 874/4/1 875/1/1 876/2/1
f 877/3/1 878/4/1 879/1/1 880/2/1
f 881/3/1 882/4/1 883/1/1 884/2/1
f 885/3/1 886/4/1 887/1/1 888/2/1
f 889/3/1 890/4/1 891/1/1 892/2/1
f 893/3/1 894/4/1 895/1/1 896/2/1
f 897/3/1 898/4/1 899/1/1 900/2/1
f 901/3/1 902/4/1 903/1/1 904/2/1
f 905/3/1 906/4/1 907/1/1 908/2/1
f 909/3/1 910/4/1 911/1/1 912/2/1
f 913/3/1 914/4/1 915/1/1 916/2/1
f 917/3/1 918/4/1 919/1/1 920/2/1

