# Tiled2Unity generated file. Do not modify by hand.
# Wavefront file for 'map4_mesh_0002.obj'

# Vertices (Count = 16)
v -18.5 -8.5 0
v -19 -8.5 0
v -19 -8 0
v -18.5 -8 0
v -19 -8.5 0
v -19.5 -8.5 0
v -19.5 -8 0
v -19 -8 0
v -18.5 -11 0
v -19 -11 0
v -19 -10.5 0
v -18.5 -10.5 0
v -19 -11 0
v -19.5 -11 0
v -19.5 -10.5 0
v -19 -10.5 0

# Texture cooridinates (Count = 4)
vt 0 0
vt 1 0
vt 1 1
vt 0 1

# Normal
vn 0 0 -1

# Mesh description
g map4_mesh_0002

# Faces
f 1/1/1 2/2/1 3/3/1 4/4/1
f 5/1/1 6/2/1 7/3/1 8/4/1
f 9/1/1 10/2/1 11/3/1 12/4/1
f 13/1/1 14/2/1 15/3/1 16/4/1

