# Tiled2Unity generated file. Do not modify by hand.
# Wavefront file for 'map4_mesh_0001.obj'

# Vertices (Count = 24)
v 0 -1 0
v -0.5 -1 0
v -0.5 -0.5 0
v 0 -0.5 0
v -2 -2 0
v -2.5 -2 0
v -2.5 -1.5 0
v -2 -1.5 0
v -7.5 -2 0
v -8 -2 0
v -8 -1.5 0
v -7.5 -1.5 0
v -9 -3 0
v -9.5 -3 0
v -9.5 -2.5 0
v -9 -2.5 0
v 0 -4 0
v -0.5 -4 0
v -0.5 -3.5 0
v 0 -3.5 0
v -8 -4 0
v -8.5 -4 0
v -8.5 -3.5 0
v -8 -3.5 0

# Texture cooridinates (Count = 4)
vt 0 0
vt 1 0
vt 1 1
vt 0 1

# Normal
vn 0 0 -1

# Mesh description
g map4_mesh_0001

# Faces
f 1/1/1 2/2/1 3/3/1 4/4/1
f 5/1/1 6/2/1 7/3/1 8/4/1
f 9/1/1 10/2/1 11/3/1 12/4/1
f 13/1/1 14/2/1 15/3/1 16/4/1
f 17/1/1 18/2/1 19/3/1 20/4/1
f 21/1/1 22/2/1 23/3/1 24/4/1

