# Tiled2Unity generated file. Do not modify by hand.
# Wavefront file for 'map4_mesh_0010.obj'

# Vertices (Count = 20)
v -5.5 -7 0
v -6 -7 0
v -6 -6.5 0
v -5.5 -6.5 0
v -4 -8 0
v -4.5 -8 0
v -4.5 -7.5 0
v -4 -7.5 0
v -22.5 -9.5 0
v -23 -9.5 0
v -23 -9 0
v -22.5 -9 0
v -7.5 -10 0
v -8 -10 0
v -8 -9.5 0
v -7.5 -9.5 0
v -22 -10.5 0
v -22.5 -10.5 0
v -22.5 -10 0
v -22 -10 0

# Texture cooridinates (Count = 4)
vt 0 0
vt 1 0
vt 1 1
vt 0 1

# Normal
vn 0 0 -1

# Mesh description
g map4_mesh_0010

# Faces
f 1/1/1 2/2/1 3/3/1 4/4/1
f 5/1/1 6/2/1 7/3/1 8/4/1
f 9/1/1 10/2/1 11/3/1 12/4/1
f 13/1/1 14/2/1 15/3/1 16/4/1
f 17/1/1 18/2/1 19/3/1 20/4/1

