# Tiled2Unity generated file. Do not modify by hand.
# Wavefront file for 'map4_mesh_0007.obj'

# Vertices (Count = 212)
v -2 -0.5 0
v -2.5 -0.5 0
v -2.5 0 0
v -2 0 0
v -2 -1 0
v -2.5 -1 0
v -2.5 -0.5 0
v -2 -0.5 0
v -2 -1.5 0
v -2.5 -1.5 0
v -2.5 -1 0
v -2 -1 0
v -2 -2 0
v -2.5 -2 0
v -2.5 -1.5 0
v -2 -1.5 0
v -2 -2.5 0
v -2.5 -2.5 0
v -2.5 -2 0
v -2 -2 0
v -2 -3 0
v -2.5 -3 0
v -2.5 -2.5 0
v -2 -2.5 0
v -2 -3.5 0
v -2.5 -3.5 0
v -2.5 -3 0
v -2 -3 0
v -2 -4 0
v -2.5 -4 0
v -2.5 -3.5 0
v -2 -3.5 0
v -2 -4.5 0
v -2.5 -4.5 0
v -2.5 -4 0
v -2 -4 0
v -2 -5 0
v -2.5 -5 0
v -2.5 -4.5 0
v -2 -4.5 0
v -2 -5.5 0
v -2.5 -5.5 0
v -2.5 -5 0
v -2 -5 0
v -2 -6 0
v -2.5 -6 0
v -2.5 -5.5 0
v -2 -5.5 0
v -2 -6.5 0
v -2.5 -6.5 0
v -2.5 -6 0
v -2 -6 0
v -2 -7 0
v -2.5 -7 0
v -2.5 -6.5 0
v -2 -6.5 0
v -2 -7.5 0
v -2.5 -7.5 0
v -2.5 -7 0
v -2 -7 0
v -5.5 -7.5 0
v -6 -7.5 0
v -6 -7 0
v -5.5 -7 0
v -2 -8 0
v -2.5 -8 0
v -2.5 -7.5 0
v -2 -7.5 0
v -9 -8 0
v -9.5 -8 0
v -9.5 -7.5 0
v -9 -7.5 0
v -19.5 -8 0
v -20 -8 0
v -20 -7.5 0
v -19.5 -7.5 0
v -2 -8.5 0
v -2.5 -8.5 0
v -2.5 -8 0
v -2 -8 0
v -2 -9 0
v -2.5 -9 0
v -2.5 -8.5 0
v -2 -8.5 0
v -19.5 -9 0
v -20 -9 0
v -20 -8.5 0
v -19.5 -8.5 0
v -2 -9.5 0
v -2.5 -9.5 0
v -2.5 -9 0
v -2 -9 0
v -13.5 -9.5 0
v -14 -9.5 0
v -14 -9 0
v -13.5 -9 0
v -19.5 -9.5 0
v -20 -9.5 0
v -20 -9 0
v -19.5 -9 0
v -2 -10 0
v -2.5 -10 0
v -2.5 -9.5 0
v -2 -9.5 0
v -13.5 -10 0
v -14 -10 0
v -14 -9.5 0
v -13.5 -9.5 0
v -19.5 -10 0
v -20 -10 0
v -20 -9.5 0
v -19.5 -9.5 0
v -2 -10.5 0
v -2.5 -10.5 0
v -2.5 -10 0
v -2 -10 0
v -13.5 -10.5 0
v -14 -10.5 0
v -14 -10 0
v -13.5 -10 0
v -19.5 -10.5 0
v -20 -10.5 0
v -20 -10 0
v -19.5 -10 0
v -2 -11 0
v -2.5 -11 0
v -2.5 -10.5 0
v -2 -10.5 0
v -13.5 -11 0
v -14 -11 0
v -14 -10.5 0
v -13.5 -10.5 0
v -14.5 -11 0
v -15 -11 0
v -15 -10.5 0
v -14.5 -10.5 0
v -2 -11.5 0
v -2.5 -11.5 0
v -2.5 -11 0
v -2 -11 0
v -13.5 -11.5 0
v -14 -11.5 0
v -14 -11 0
v -13.5 -11 0
v -14.5 -11.5 0
v -15 -11.5 0
v -15 -11 0
v -14.5 -11 0
v -16 -11.5 0
v -16.5 -11.5 0
v -16.5 -11 0
v -16 -11 0
v -19.5 -11.5 0
v -20 -11.5 0
v -20 -11 0
v -19.5 -11 0
v -2 -12 0
v -2.5 -12 0
v -2.5 -11.5 0
v -2 -11.5 0
v -5 -12 0
v -5.5 -12 0
v -5.5 -11.5 0
v -5 -11.5 0
v -13.5 -12 0
v -14 -12 0
v -14 -11.5 0
v -13.5 -11.5 0
v -14.5 -12 0
v -15 -12 0
v -15 -11.5 0
v -14.5 -11.5 0
v -16 -12 0
v -16.5 -12 0
v -16.5 -11.5 0
v -16 -11.5 0
v -17.5 -12 0
v -18 -12 0
v -18 -11.5 0
v -17.5 -11.5 0
v -19.5 -12 0
v -20 -12 0
v -20 -11.5 0
v -19.5 -11.5 0
v -2 -12.5 0
v -2.5 -12.5 0
v -2.5 -12 0
v -2 -12 0
v -5 -12.5 0
v -5.5 -12.5 0
v -5.5 -12 0
v -5 -12 0
v -13.5 -12.5 0
v -14 -12.5 0
v -14 -12 0
v -13.5 -12 0
v -14.5 -12.5 0
v -15 -12.5 0
v -15 -12 0
v -14.5 -12 0
v -16 -12.5 0
v -16.5 -12.5 0
v -16.5 -12 0
v -16 -12 0
v -17.5 -12.5 0
v -18 -12.5 0
v -18 -12 0
v -17.5 -12 0
v -19.5 -12.5 0
v -20 -12.5 0
v -20 -12 0
v -19.5 -12 0

# Texture cooridinates (Count = 4)
vt 0 0
vt 1 0
vt 1 1
vt 0 1

# Normal
vn 0 0 -1

# Mesh description
g map4_mesh_0007

# Faces
f 1/1/1 2/2/1 3/3/1 4/4/1
f 5/1/1 6/2/1 7/3/1 8/4/1
f 9/1/1 10/2/1 11/3/1 12/4/1
f 13/1/1 14/2/1 15/3/1 16/4/1
f 17/1/1 18/2/1 19/3/1 20/4/1
f 21/1/1 22/2/1 23/3/1 24/4/1
f 25/1/1 26/2/1 27/3/1 28/4/1
f 29/1/1 30/2/1 31/3/1 32/4/1
f 33/1/1 34/2/1 35/3/1 36/4/1
f 37/1/1 38/2/1 39/3/1 40/4/1
f 41/1/1 42/2/1 43/3/1 44/4/1
f 45/1/1 46/2/1 47/3/1 48/4/1
f 49/1/1 50/2/1 51/3/1 52/4/1
f 53/1/1 54/2/1 55/3/1 56/4/1
f 57/1/1 58/2/1 59/3/1 60/4/1
f 61/1/1 62/2/1 63/3/1 64/4/1
f 65/1/1 66/2/1 67/3/1 68/4/1
f 69/1/1 70/2/1 71/3/1 72/4/1
f 73/1/1 74/2/1 75/3/1 76/4/1
f 77/1/1 78/2/1 79/3/1 80/4/1
f 81/1/1 82/2/1 83/3/1 84/4/1
f 85/1/1 86/2/1 87/3/1 88/4/1
f 89/1/1 90/2/1 91/3/1 92/4/1
f 93/1/1 94/2/1 95/3/1 96/4/1
f 97/1/1 98/2/1 99/3/1 100/4/1
f 101/1/1 102/2/1 103/3/1 104/4/1
f 105/1/1 106/2/1 107/3/1 108/4/1
f 109/1/1 110/2/1 111/3/1 112/4/1
f 113/1/1 114/2/1 115/3/1 116/4/1
f 117/1/1 118/2/1 119/3/1 120/4/1
f 121/1/1 122/2/1 123/3/1 124/4/1
f 125/1/1 126/2/1 127/3/1 128/4/1
f 129/1/1 130/2/1 131/3/1 132/4/1
f 133/1/1 134/2/1 135/3/1 136/4/1
f 137/1/1 138/2/1 139/3/1 140/4/1
f 141/1/1 142/2/1 143/3/1 144/4/1
f 145/1/1 146/2/1 147/3/1 148/4/1
f 149/1/1 150/2/1 151/3/1 152/4/1
f 153/1/1 154/2/1 155/3/1 156/4/1
f 157/1/1 158/2/1 159/3/1 160/4/1
f 161/1/1 162/2/1 163/3/1 164/4/1
f 165/1/1 166/2/1 167/3/1 168/4/1
f 169/1/1 170/2/1 171/3/1 172/4/1
f 173/1/1 174/2/1 175/3/1 176/4/1
f 177/1/1 178/2/1 179/3/1 180/4/1
f 181/1/1 182/2/1 183/3/1 184/4/1
f 185/1/1 186/2/1 187/3/1 188/4/1
f 189/1/1 190/2/1 191/3/1 192/4/1
f 193/1/1 194/2/1 195/3/1 196/4/1
f 197/1/1 198/2/1 199/3/1 200/4/1
f 201/1/1 202/2/1 203/3/1 204/4/1
f 205/1/1 206/2/1 207/3/1 208/4/1
f 209/1/1 210/2/1 211/3/1 212/4/1

