# Tiled2Unity generated file. Do not modify by hand.
# Wavefront file for 'map4_mesh_0013.obj'

# Vertices (Count = 76)
v -23 -7 0
v -23.5 -7 0
v -23.5 -6.5 0
v -23 -6.5 0
v -25 -7 0
v -25.5 -7 0
v -25.5 -6.5 0
v -25 -6.5 0
v -27 -7 0
v -27.5 -7 0
v -27.5 -6.5 0
v -27 -6.5 0
v -9 -7.5 0
v -9.5 -7.5 0
v -9.5 -7 0
v -9 -7 0
v -19.5 -7.5 0
v -20 -7.5 0
v -20 -7 0
v -19.5 -7 0
v -16.5 -8 0
v -17 -8 0
v -17 -7.5 0
v -16.5 -7.5 0
v -3.5 -9 0
v -4 -9 0
v -4 -8.5 0
v -3.5 -8.5 0
v -6.5 -9 0
v -7 -9 0
v -7 -8.5 0
v -6.5 -8.5 0
v -13.5 -9 0
v -14 -9 0
v -14 -8.5 0
v -13.5 -8.5 0
v -17.5 -9 0
v -18 -9 0
v -18 -8.5 0
v -17.5 -8.5 0
v -20.5 -9 0
v -21 -9 0
v -21 -8.5 0
v -20.5 -8.5 0
v -14.5 -10.5 0
v -15 -10.5 0
v -15 -10 0
v -14.5 -10 0
v -8.5 -11 0
v -9 -11 0
v -9 -10.5 0
v -8.5 -10.5 0
v -16 -11 0
v -16.5 -11 0
v -16.5 -10.5 0
v -16 -10.5 0
v -34.5 -11 0
v -35 -11 0
v -35 -10.5 0
v -34.5 -10.5 0
v -38.5 -11 0
v -39 -11 0
v -39 -10.5 0
v -38.5 -10.5 0
v -5 -11.5 0
v -5.5 -11.5 0
v -5.5 -11 0
v -5 -11 0
v -7 -11.5 0
v -7.5 -11.5 0
v -7.5 -11 0
v -7 -11 0
v -17.5 -11.5 0
v -18 -11.5 0
v -18 -11 0
v -17.5 -11 0

# Texture cooridinates (Count = 4)
vt 0 0
vt 1 0
vt 1 1
vt 0 1

# Normal
vn 0 0 -1

# Mesh description
g map4_mesh_0013

# Faces
f 1/1/1 2/2/1 3/3/1 4/4/1
f 5/1/1 6/2/1 7/3/1 8/4/1
f 9/1/1 10/2/1 11/3/1 12/4/1
f 13/1/1 14/2/1 15/3/1 16/4/1
f 17/1/1 18/2/1 19/3/1 20/4/1
f 21/1/1 22/2/1 23/3/1 24/4/1
f 25/1/1 26/2/1 27/3/1 28/4/1
f 29/1/1 30/2/1 31/3/1 32/4/1
f 33/1/1 34/2/1 35/3/1 36/4/1
f 37/1/1 38/2/1 39/3/1 40/4/1
f 41/1/1 42/2/1 43/3/1 44/4/1
f 45/1/1 46/2/1 47/3/1 48/4/1
f 49/1/1 50/2/1 51/3/1 52/4/1
f 53/1/1 54/2/1 55/3/1 56/4/1
f 57/1/1 58/2/1 59/3/1 60/4/1
f 61/1/1 62/2/1 63/3/1 64/4/1
f 65/1/1 66/2/1 67/3/1 68/4/1
f 69/1/1 70/2/1 71/3/1 72/4/1
f 73/1/1 74/2/1 75/3/1 76/4/1

