# Tiled2Unity generated file. Do not modify by hand.
# Wavefront file for 'map6_mesh_0011.obj'

# Vertices (Count = 20)
v -11.5 -4 0
v -12 -4 0
v -12 -3.5 0
v -11.5 -3.5 0
v -43.5 -4 0
v -44 -4 0
v -44 -3.5 0
v -43.5 -3.5 0
v -14 -7.5 0
v -14.5 -7.5 0
v -14.5 -7 0
v -14 -7 0
v -2.5 -12 0
v -3 -12 0
v -3 -11.5 0
v -2.5 -11.5 0
v -2.5 -12.5 0
v -3 -12.5 0
v -3 -12 0
v -2.5 -12 0

# Texture cooridinates (Count = 4)
vt 0 0
vt 1 0
vt 1 1
vt 0 1

# Normal
vn 0 0 -1

# Mesh description
g map6_mesh_0011

# Faces
f 1/1/1 2/2/1 3/3/1 4/4/1
f 5/1/1 6/2/1 7/3/1 8/4/1
f 9/1/1 10/2/1 11/3/1 12/4/1
f 13/1/1 14/2/1 15/3/1 16/4/1
f 17/1/1 18/2/1 19/3/1 20/4/1

