# Tiled2Unity generated file. Do not modify by hand.
# Wavefront file for 'level_1_02_mesh_0009.obj'

# Vertices (Count = 56)
v -15.5 -8.5 0
v -16 -8.5 0
v -16 -8 0
v -15.5 -8 0
v -16 -8.5 0
v -16.5 -8.5 0
v -16.5 -8 0
v -16 -8 0
v -16.5 -8.5 0
v -17 -8.5 0
v -17 -8 0
v -16.5 -8 0
v -17 -8.5 0
v -17.5 -8.5 0
v -17.5 -8 0
v -17 -8 0
v -17.5 -8.5 0
v -18 -8.5 0
v -18 -8 0
v -17.5 -8 0
v -18 -8.5 0
v -18.5 -8.5 0
v -18.5 -8 0
v -18 -8 0
v -18.5 -8.5 0
v -19 -8.5 0
v -19 -8 0
v -18.5 -8 0
v -19 -8.5 0
v -19.5 -8.5 0
v -19.5 -8 0
v -19 -8 0
v -19.5 -8.5 0
v -20 -8.5 0
v -20 -8 0
v -19.5 -8 0
v -3 -11.5 0
v -3.5 -11.5 0
v -3.5 -11 0
v -3 -11 0
v -3.5 -11.5 0
v -4 -11.5 0
v -4 -11 0
v -3.5 -11 0
v -4 -11.5 0
v -4.5 -11.5 0
v -4.5 -11 0
v -4 -11 0
v -4.5 -11.5 0
v -5 -11.5 0
v -5 -11 0
v -4.5 -11 0
v -5 -11.5 0
v -5.5 -11.5 0
v -5.5 -11 0
v -5 -11 0

# Texture cooridinates (Count = 4)
vt 0 0
vt 1 0
vt 1 1
vt 0 1

# Normal
vn 0 0 -1

# Mesh description
g level_1_02_mesh_0009

# Faces
f 1/1/1 2/2/1 3/3/1 4/4/1
f 5/1/1 6/2/1 7/3/1 8/4/1
f 9/1/1 10/2/1 11/3/1 12/4/1
f 13/1/1 14/2/1 15/3/1 16/4/1
f 17/1/1 18/2/1 19/3/1 20/4/1
f 21/1/1 22/2/1 23/3/1 24/4/1
f 25/1/1 26/2/1 27/3/1 28/4/1
f 29/1/1 30/2/1 31/3/1 32/4/1
f 33/1/1 34/2/1 35/3/1 36/4/1
f 37/1/1 38/2/1 39/3/1 40/4/1
f 41/1/1 42/2/1 43/3/1 44/4/1
f 45/1/1 46/2/1 47/3/1 48/4/1
f 49/1/1 50/2/1 51/3/1 52/4/1
f 53/1/1 54/2/1 55/3/1 56/4/1

