# Tiled2Unity generated file. Do not modify by hand.
# Wavefront file for 'level_1_01_mesh_0017.obj'

# Vertices (Count = 28)
v -62 -3.5 0
v -62.5 -3.5 0
v -62.5 -3 0
v -62 -3 0
v -72 -4.5 0
v -72.5 -4.5 0
v -72.5 -4 0
v -72 -4 0
v -70 -6 0
v -70.5 -6 0
v -70.5 -5.5 0
v -70 -5.5 0
v -40.5 -8.5 0
v -41 -8.5 0
v -41 -8 0
v -40.5 -8 0
v -42.5 -8.5 0
v -43 -8.5 0
v -43 -8 0
v -42.5 -8 0
v -55.5 -8.5 0
v -56 -8.5 0
v -56 -8 0
v -55.5 -8 0
v -61.5 -9 0
v -62 -9 0
v -62 -8.5 0
v -61.5 -8.5 0

# Texture cooridinates (Count = 4)
vt 0 0
vt 1 0
vt 1 1
vt 0 1

# Normal
vn 0 0 -1

# Mesh description
g level_1_01_mesh_0017

# Faces
f 1/1/1 2/2/1 3/3/1 4/4/1
f 5/1/1 6/2/1 7/3/1 8/4/1
f 9/1/1 10/2/1 11/3/1 12/4/1
f 13/1/1 14/2/1 15/3/1 16/4/1
f 17/1/1 18/2/1 19/3/1 20/4/1
f 21/1/1 22/2/1 23/3/1 24/4/1
f 25/1/1 26/2/1 27/3/1 28/4/1

