# Tiled2Unity generated file. Do not modify by hand.
# Wavefront file for 'level_1_01_mesh_0009.obj'

# Vertices (Count = 80)
v -56 -3 0
v -56.5 -3 0
v -56.5 -2.5 0
v -56 -2.5 0
v -71.5 -4 0
v -72 -4 0
v -72 -3.5 0
v -71.5 -3.5 0
v -41 -5 0
v -41.5 -5 0
v -41.5 -4.5 0
v -41 -4.5 0
v -63.5 -5 0
v -64 -5 0
v -64 -4.5 0
v -63.5 -4.5 0
v -34.5 -5.5 0
v -35 -5.5 0
v -35 -5 0
v -34.5 -5 0
v -26 -7 0
v -26.5 -7 0
v -26.5 -6.5 0
v -26 -6.5 0
v -15.5 -7.5 0
v -16 -7.5 0
v -16 -7 0
v -15.5 -7 0
v -39.5 -7.5 0
v -40 -7.5 0
v -40 -7 0
v -39.5 -7 0
v -58 -8 0
v -58.5 -8 0
v -58.5 -7.5 0
v -58 -7.5 0
v -14 -9.5 0
v -14.5 -9.5 0
v -14.5 -9 0
v -14 -9 0
v -39.5 -9.5 0
v -40 -9.5 0
v -40 -9 0
v -39.5 -9 0
v -69.5 -9.5 0
v -70 -9.5 0
v -70 -9 0
v -69.5 -9 0
v -12.5 -10.5 0
v -13 -10.5 0
v -13 -10 0
v -12.5 -10 0
v -66 -10.5 0
v -66.5 -10.5 0
v -66.5 -10 0
v -66 -10 0
v -2.5 -11.5 0
v -3 -11.5 0
v -3 -11 0
v -2.5 -11 0
v -7.5 -11.5 0
v -8 -11.5 0
v -8 -11 0
v -7.5 -11 0
v -17.5 -11.5 0
v -18 -11.5 0
v -18 -11 0
v -17.5 -11 0
v -20 -11.5 0
v -20.5 -11.5 0
v -20.5 -11 0
v -20 -11 0
v -46.5 -11.5 0
v -47 -11.5 0
v -47 -11 0
v -46.5 -11 0
v -52.5 -11.5 0
v -53 -11.5 0
v -53 -11 0
v -52.5 -11 0

# Texture cooridinates (Count = 4)
vt 0 0
vt 1 0
vt 1 1
vt 0 1

# Normal
vn 0 0 -1

# Mesh description
g level_1_01_mesh_0009

# Faces
f 1/1/1 2/2/1 3/3/1 4/4/1
f 5/1/1 6/2/1 7/3/1 8/4/1
f 9/1/1 10/2/1 11/3/1 12/4/1
f 13/1/1 14/2/1 15/3/1 16/4/1
f 17/1/1 18/2/1 19/3/1 20/4/1
f 21/1/1 22/2/1 23/3/1 24/4/1
f 25/1/1 26/2/1 27/3/1 28/4/1
f 29/1/1 30/2/1 31/3/1 32/4/1
f 33/1/1 34/2/1 35/3/1 36/4/1
f 37/1/1 38/2/1 39/3/1 40/4/1
f 41/1/1 42/2/1 43/3/1 44/4/1
f 45/1/1 46/2/1 47/3/1 48/4/1
f 49/1/1 50/2/1 51/3/1 52/4/1
f 53/1/1 54/2/1 55/3/1 56/4/1
f 57/1/1 58/2/1 59/3/1 60/4/1
f 61/1/1 62/2/1 63/3/1 64/4/1
f 65/1/1 66/2/1 67/3/1 68/4/1
f 69/1/1 70/2/1 71/3/1 72/4/1
f 73/1/1 74/2/1 75/3/1 76/4/1
f 77/1/1 78/2/1 79/3/1 80/4/1

