# Tiled2Unity generated file. Do not modify by hand.
# Wavefront file for 'level_1_04_mesh_0008.obj'

# Vertices (Count = 64)
v -2.5 -4 0
v -3 -4 0
v -3 -3.5 0
v -2.5 -3.5 0
v -8.5 -4 0
v -9 -4 0
v -9 -3.5 0
v -8.5 -3.5 0
v -14.5 -4 0
v -15 -4 0
v -15 -3.5 0
v -14.5 -3.5 0
v -40.5 -4 0
v -41 -4 0
v -41 -3.5 0
v -40.5 -3.5 0
v -6.5 -4.5 0
v -7 -4.5 0
v -7 -4 0
v -6.5 -4 0
v -13 -4.5 0
v -13.5 -4.5 0
v -13.5 -4 0
v -13 -4 0
v -26 -7.5 0
v -26.5 -7.5 0
v -26.5 -7 0
v -26 -7 0
v -30 -7.5 0
v -30.5 -7.5 0
v -30.5 -7 0
v -30 -7 0
v -38 -7.5 0
v -38.5 -7.5 0
v -38.5 -7 0
v -38 -7 0
v -4.5 -8 0
v -5 -8 0
v -5 -7.5 0
v -4.5 -7.5 0
v -20.5 -9 0
v -21 -9 0
v -21 -8.5 0
v -20.5 -8.5 0
v -52 -10 0
v -52.5 -10 0
v -52.5 -9.5 0
v -52 -9.5 0
v -54 -10.5 0
v -54.5 -10.5 0
v -54.5 -10 0
v -54 -10 0
v -15 -11.5 0
v -15.5 -11.5 0
v -15.5 -11 0
v -15 -11 0
v -21.5 -11.5 0
v -22 -11.5 0
v -22 -11 0
v -21.5 -11 0
v -27.5 -11.5 0
v -28 -11.5 0
v -28 -11 0
v -27.5 -11 0

# Texture cooridinates (Count = 4)
vt 0 0
vt 1 0
vt 1 1
vt 0 1

# Normal
vn 0 0 -1

# Mesh description
g level_1_04_mesh_0008

# Faces
f 1/1/1 2/2/1 3/3/1 4/4/1
f 5/1/1 6/2/1 7/3/1 8/4/1
f 9/1/1 10/2/1 11/3/1 12/4/1
f 13/1/1 14/2/1 15/3/1 16/4/1
f 17/1/1 18/2/1 19/3/1 20/4/1
f 21/1/1 22/2/1 23/3/1 24/4/1
f 25/1/1 26/2/1 27/3/1 28/4/1
f 29/1/1 30/2/1 31/3/1 32/4/1
f 33/1/1 34/2/1 35/3/1 36/4/1
f 37/1/1 38/2/1 39/3/1 40/4/1
f 41/1/1 42/2/1 43/3/1 44/4/1
f 45/1/1 46/2/1 47/3/1 48/4/1
f 49/1/1 50/2/1 51/3/1 52/4/1
f 53/1/1 54/2/1 55/3/1 56/4/1
f 57/1/1 58/2/1 59/3/1 60/4/1
f 61/1/1 62/2/1 63/3/1 64/4/1

